<?xml version="1.0" encoding="utf-8"?>
<!-- Generator: Adobe Illustrator 23.0.0, SVG Export Plug-In . SVG Version: 6.00 Build 0)  -->
<svg version="1.1" id="Слой_1" xmlns="http://www.w3.org/2000/svg" xmlns:xlink="http://www.w3.org/1999/xlink" x="0px" y="0px"
	 viewBox="0 0 1439.25 776.25" style="enable-background:new 0 0 1439.25 776.25;" xml:space="preserve">
<path d="M0.75,718.5c1.73-0.17,3.46-0.5,5.19-0.5c476.08-0.02,952.15-0.02,1428.23,0.04c1.6,0,3.19,1.01,4.79,1.54
	c-1.65,0.46-3.3,1.33-4.95,1.33c-475.95,0.06-951.9,0.06-1427.85,0.02c-1.8,0-3.6-0.61-5.4-0.93C0.75,719.5,0.75,719,0.75,718.5z"/>
<path d="M0.75,125.25c1.73-0.13,3.46-0.39,5.19-0.39c357.2-0.07,714.39-0.11,1071.59-0.17c118.86-0.02,237.71-0.05,356.57-0.04
	c1.97,0,3.93,0.39,5.9,0.6c0,0.25,0,0.5,0,0.75c-36.36,0.03-72.73,0.08-109.09,0.08c-440.89,0.04-881.78,0.07-1322.67,0.09
	c-2.5,0-4.99-0.11-7.49-0.17C0.75,125.75,0.75,125.5,0.75,125.25z"/>
<path d="M0.75,60.75c1.61-0.1,3.23-0.29,4.84-0.28c477.51,0.1,955.03,0.22,1432.54,0.33c0.62,0,1.25-0.03,1.87-0.04c0,0.5,0,1,0,1.5
	c-71.36-0.03-142.71-0.07-214.07-0.1C818.9,62.01,411.88,61.88,4.85,61.73c-1.37,0-2.73-0.15-4.1-0.23
	C0.75,61.25,0.75,61,0.75,60.75z"/>
<path d="M1431.32,262.21c-69.5,0-138.99-0.01-208.49,0c-294.24,0.03-588.48,0.06-882.73,0.08c-4.36,0-4.58,0.31-3.2,4.52
	c4.31,13.18,8.74,26.32,12.88,39.56c1,3.19,2.52,4.23,5.84,4.23c83.87-0.09,167.75-0.09,251.62-0.07
	c273.62,0.06,547.24,0.13,820.85,0.19c1.24,0,2.47,0,3.7,0.42c-359.9,0-719.8,0-1080.1,0c0.34,1.33,0.54,2.39,0.87,3.4
	c4.34,13.3,8.76,26.57,13,39.9c0.8,2.51,1.83,3.55,4.65,3.54c37.37-0.1,74.75-0.08,112.12,0c2.54,0.01,4.08-0.76,5.44-2.94
	c5.1-8.16,11.03-15.87,15.39-24.39c2.53-4.94,4.75-5.85,10.08-5.36c9.67,0.9,19.48,0.29,29.23,0.32
	c14.74,0.05,29.48,0.14,44.21,0.12c2.06,0,4.15-0.46,6.17-0.94c2.37-0.56,3.42,0.41,3.96,2.61c2.31,9.45,4.62,18.89,7.15,28.28
	c0.26,0.97,1.97,2.04,3.11,2.18c2.71,0.32,5.49,0.11,8.24,0.11c197.74,0.05,395.49,0.1,593.23,0.16c1.25,0,2.49,0,3.74,0.52
	c-202.32,0-404.64,0-607.55,0c1.07,4.13,1.97,7.73,2.93,11.31c7.21,26.88,14.47,53.75,21.59,80.65c0.77,2.9,1.91,4.03,5.06,4.03
	c83.87-0.09,167.75-0.12,251.62,0.02c5.83,0.01,6.86-4.59,8.73-7.89c1.84-3.25,3.13-4.73,7.05-3.56c2.53,0.75,5.46,0.19,8.21,0.13
	c10.47-0.23,20.95-0.67,31.42-0.69c12.48-0.03,24.95,0.39,37.43,0.44c14.71,0.06,29.43,0.15,44.14-0.28
	c4.45-0.13,7.73,0.22,10.32,4.29c3.96,6.25,9.79,7.65,17.22,7.63c125.62-0.25,251.24-0.18,376.86-0.18c1.35,0,2.71,0,4.06,0
	c0,0.2,0,0.39,0,0.59c-129.76,0-259.52,0-390.08,0c1.24,1.46,1.94,2.4,2.74,3.23c8.86,9.17,17.77,18.29,26.58,27.51
	c2.48,2.6,5.17,3.87,8.89,3.72c8.99-0.35,17.99-0.37,26.99-0.44c15.56-0.13,31.14,0.17,46.67-0.49c5.06-0.21,8.35,0.6,11,4.95
	c4.99,8.18,12.39,9.9,21.84,9.85c80.62-0.39,161.24-0.22,241.87-0.22c1.44,0,2.88,0,4.31,0c-0.01,0.22-0.01,0.43-0.01,0.65
	c-85.83,0-171.65,0-258.07,0c0.83,1.11,1.26,1.81,1.81,2.39c8.35,8.96,16.63,17.99,25.15,26.78c1.48,1.53,3.99,2.77,6.09,2.87
	c24.83,1.16,49.66,2.11,74.5,3.02c2.16,0.08,4.36-0.82,6.53-0.8c2.29,0.02,4.57,0.86,6.86,0.88c10.25,0.11,20.5,0.07,30.75,0.04
	c15.58-0.05,31.17,0.02,46.75-0.03c13.22-0.04,26.44-0.01,39.66-0.09c2.21-0.01,4.41-0.64,6.62-0.66c1.05-0.01,2.44,0.48,3.05,1.25
	c0.45,0.57,0.26,2.4-0.29,2.84c-0.75,0.59-2.16,0.61-3.23,0.48c-1.79-0.22-3.53-1.08-5.29-1.1c-8.87-0.09-17.75-0.01-26.62,0.02
	c-14.75,0.06-29.49,0.15-44.24,0.19c-14.54,0.04-29.07,0.11-43.61,0.02c-15.4-0.1-30.79-0.43-46.19-0.55
	c-1.76-0.01-3.51,0.77-5.29,1.04c-0.93,0.15-1.94,0.17-2.85-0.04c-2.09-0.47-4.11-1.49-6.21-1.64c-9.85-0.67-19.71-1.18-29.58-1.59
	c-1.61-0.07-3.31,0.46-4.87,1.01c-2.32,0.81-3.46-0.03-4.15-2.23c-0.44-1.42-0.92-3-1.88-4.05c-8.45-9.21-17.07-18.26-25.51-27.48
	c-1.76-1.93-3.57-2.65-6.16-2.65c-100.75,0.05-201.49,0.05-302.24-0.03c-3.79,0-5.44,1.57-5.95,5.06c-0.4,2.71-1.88,3.52-4.5,2.41
	c-1.31-0.55-2.78-1-4.19-1.02c-9.87-0.09-19.75-0.14-29.62-0.01c-2.26,0.03-4.51,0.8-6.77,1.19c-0.69,0.12-1.42,0.19-2.1,0.09
	c-2.76-0.41-5.5-1.23-8.25-1.29c-9.12-0.17-18.25-0.15-27.37-0.03c-1.88,0.02-3.73,0.92-5.63,1.13c-1.08,0.12-2.68,0.11-3.27-0.55
	c-4.57-5.04-10.17-6.98-16.9-6.97c-225.24,0.04-450.49,0.02-675.73,0c-0.99,0-1.98,0-2.97,0c0-0.18,0-0.36,0-0.54
	c227.14,0,454.28,0,681.41,0c0.09-0.29,0.17-0.58,0.26-0.86c-2.92-1.51-6-2.76-8.72-4.56c-11.38-7.55-23.69-9.61-37.31-8.9
	c-20.95,1.1-41.98,0.64-62.97,0.9c-1.43,0.02-2.84,0.69-4.28,0.82c-1.01,0.09-2.35,0.12-2.99-0.44c-0.62-0.55-0.62-1.88-0.71-2.89
	c-0.13-1.44,0.17-2.96-0.18-4.32c-2.09-8.1-4.48-16.14-6.4-24.28c-0.73-3.09-2.1-3.8-5.11-3.8c-121.75,0.04-243.49-0.01-365.24-0.04
	c-12.12,0-24.25,0-36.37-0.45c134.91,0,269.81,0,405.12,0c-0.23-1.37-0.3-2.33-0.55-3.24c-4.11-14.91-8.34-29.8-12.34-44.74
	c-3.94-14.7-7.74-29.44-11.42-44.21c-0.75-3.01-2.09-3.87-5.14-3.86c-34.87,0.11-69.75,0.1-104.62,0c-2.89-0.01-4.54,0.97-6.04,3.34
	c-5.99,9.52-12.17,18.92-18.27,28.36c-0.27,0.42-0.75,0.82-0.79,1.26c-0.53,5.79-3.64,5.14-8.41,4.73
	c-11.05-0.93-22.23-0.51-33.35-0.54c-1.16,0-2.3,0.72-3.48,0.9c-1.12,0.18-2.29,0.24-3.41,0.08c-1.42-0.2-2.81-0.98-4.21-0.97
	c-10.75,0.01-21.5,0.13-32.25,0.3c-1.32,0.02-2.67,0.39-3.93,0.84c-2.48,0.87-4.15-0.19-4.25-2.72c-0.07-1.57-0.15-3.2-0.62-4.68
	c-2.84-8.93-5.94-17.78-8.64-26.75c-0.96-3.2-2.45-4.16-5.78-4.16c-94.87,0.1-189.74,0.08-284.62,0.08c-1.34,0-2.68,0-4.02,0
	c0-0.19,0-0.38,0-0.57c97.33,0,194.67,0,292.45,0c-0.31-1.34-0.46-2.38-0.78-3.36c-4.37-13.42-8.84-26.82-13.09-40.28
	c-0.83-2.64-2.1-3.38-4.78-3.38c-35.87,0.06-71.75,0.04-107.62-0.03c-54.87-0.1-109.74-0.24-164.61-0.36c-0.86,0-1.72,0-2.58-0.26
	c92.46,0,184.93,0,278.02,0c-0.44-1.54-0.72-2.68-1.09-3.79c-4.19-12.83-8.38-25.65-12.58-38.47c-1.57-4.78-2.4-5.41-7.57-5.16
	c-11.59,0.55-23.18,1.18-34.77,1.76c-0.73,0.04-1.82,0.12-2.14-0.29c-2.18-2.78-5.19-1.96-7.96-1.96
	c-46.62-0.02-93.25,0.01-139.87-0.09c-2.98-0.01-4.75,0.92-6.38,3.36c-4.71,7.06-9.68,13.96-14.55,20.92
	c-0.29,0.41-0.78,0.79-0.84,1.22c-0.83,6.15-4.69,5.49-9.45,5.03c-7.69-0.75-15.48-0.51-23.23-0.56c-1.41-0.01-2.81,0.73-4.23,0.87
	c-1.1,0.11-2.49,0.16-3.26-0.42c-0.57-0.42-0.8-2.25-0.36-2.83c0.6-0.78,1.99-1.35,3.02-1.32c9.95,0.29,19.89,0.81,29.85,1
	c1.37,0.03,3.24-1.08,4.08-2.24c5.8-7.95,11.39-16.05,17.51-24.76c-21.67,0-42.63,0-63.58,0c0-0.22,0-0.45,0-0.67
	c19.49,0,38.97-0.13,58.46,0.1c4.11,0.05,6.58-1.13,8.84-4.59c5.54-8.47,11.97-16.38,17.15-25.04c2.64-4.41,4.28-6.12,10.15-5.38
	c10.34,1.3,20.97,0.75,31.45,0.26c14.29-0.67,28.56,0.59,42.83-0.29c2.09-0.13,4.15-0.76,6.24-0.82c1.24-0.03,2.77,0.27,3.7,1.02
	c12.48,10,24.75,20.29,37.41,30.05c2.8,2.15,6.95,3.55,10.48,3.56c11.36,0.04,22.72-0.8,34.09-1.12c1.68-0.05,3.37,0.98,5.08,1.41
	c1.4,0.35,2.83,0.81,4.25,0.81c127.87,0.04,255.74,0.03,383.61,0.04c234.6,0.01,469.19,0.03,703.79,0.04c1.12,0,2.24,0,3.36,0
	C1431.34,262.01,1431.33,262.11,1431.32,262.21z M1168.75,503c-2.09-2.25-3.77-3.85-5.2-5.65c-3.27-4.12-7.47-5.66-12.67-5.47
	c-6.99,0.26-14.01,0.42-20.98,0.08c-6.96-0.34-13.81,0.92-20.84,0.38c-10.31-0.8-20.74-0.45-31.09,0.06
	c-4.25,0.21-8.21,1.7-9.29-4.27c-0.07-0.41-0.66-0.72-1.01-1.08c-9.56-9.87-19.06-19.81-28.75-29.55c-1.31-1.31-3.61-2.3-5.45-2.31
	c-45.73-0.14-91.46-0.1-137.19-0.19c-2.45,0-3.85,0.82-5.16,2.79c-7.66,11.56-15.43,23.04-23.16,34.54
	c-2.27,3.37-4.54,6.75-7.16,10.65C963.64,503,1065.72,503,1168.75,503z M630.62,455.23c2.68,10.05,5.21,19.81,8.01,29.5
	c0.27,0.93,2.24,1.95,3.42,1.94c11.37-0.02,22.73-0.25,34.1-0.42c3.24-3.52,6.76-1,10.36-0.84c10.35,0.47,20.73,0.16,31.1-0.02
	c1.81-0.03,3.58-1.13,5.41-1.39c1.15-0.16,2.58,0.02,3.54,0.6c1.85,1.11,3.3,2.92,5.18,3.92c8.39,4.43,16.83,8.79,25.38,12.91
	c2.27,1.09,4.99,1.74,7.51,1.75c29.61,0.12,59.22,0.05,88.84,0.12c2.53,0.01,4.1-0.79,5.51-2.93c9.32-14.06,18.77-28.02,28.17-42.03
	c0.59-0.88,1.05-1.84,1.77-3.12C802.63,455.23,716.85,455.23,630.62,455.23z M286.98,261.72c-1.76-1.53-2.64-2.35-3.58-3.11
	c-10.1-8.17-20.3-16.22-30.27-24.56c-3.77-3.15-7.98-4.35-12.59-4.32c-15.07,0.11-30.14,0.45-45.21,0.6
	c-10.24,0.1-20.49,0.08-30.73-0.02c-3.01-0.03-5.13,0.9-6.88,3.5c-5.59,8.28-11.41,16.4-17.12,24.6c-0.65,0.93-1.18,1.94-1.99,3.3
	C188.15,261.72,236.97,261.72,286.98,261.72z M367.21,358.69c0.49,1.73,0.85,3.15,1.3,4.53c2.74,8.42,5.65,16.79,8.2,25.27
	c1.01,3.34,2.73,4.48,6.18,4.44c15.62-0.17,31.24-0.12,46.87-0.13c9.61,0,19.23-0.05,28.84,0.11c3.21,0.05,5.38-1.02,7.11-3.76
	c5.73-9.08,11.63-18.05,17.45-27.07c0.63-0.98,1.13-2.05,1.86-3.39C445.51,358.69,406.6,358.69,367.21,358.69z M601.34,357.73
	c-2.2-8.21-4.51-16.1-6.37-24.08c-0.88-3.78-2.78-5.04-6.5-5.03c-14.58,0.04-29.17,0.11-43.75,0.01
	c-10.62-0.07-21.24-0.25-31.85,0.11c-2.31,0.08-5.06,1.8-6.7,3.59c-2.5,2.73-4.21,6.17-6.24,9.32c-3.36,5.2-6.7,10.41-10.35,16.07
	C527.12,357.73,564.01,357.73,601.34,357.73z M1035.57,454.35c-4.39-6.04-9.37-9.18-16.42-8.53c-11.09,1.02-22.37-1.52-33.36,1.71
	c-0.51,0.15-1.18-0.25-1.77-0.37c-1.65-0.35-3.31-0.96-4.96-0.98c-7.37-0.08-14.76,0.28-22.12-0.03c-7.19-0.3-14.29,0.77-21.53,0.32
	c-10.46-0.65-20.99-0.02-31.48-0.14c-4.18-0.05-8.42,2.62-9.4,8.03C941.34,454.35,988.14,454.35,1035.57,454.35z M763.66,504.03
	c-0.04,0.29-0.08,0.57-0.12,0.86c1.37,0.49,2.71,1.26,4.12,1.42c3.69,0.42,7.42,0.81,11.13,0.78c11.07-0.08,22.15-0.58,33.22-0.51
	c13.07,0.08,26.14,0.66,39.22,0.78c1.64,0.01,3.29-1.48,4.93-2.28c-0.18-0.35-0.35-0.7-0.53-1.05
	C824.97,504.03,794.31,504.03,763.66,504.03z"/>
<path d="M1438.58,694.3c-478.35,0-956.11,0-1433.87,0c-0.11-0.35-0.21-0.71-0.32-1.06c0.92-0.52,1.79-1.3,2.77-1.5
	c1.32-0.27,2.74-0.09,4.11-0.09c473.6,0,947.2,0,1420.8,0.05C1434.17,691.69,1436.92,690.49,1438.58,694.3z"/>
<path d="M803.79,140.52c-0.33,0.67-0.66,1.33-1.17,2.35c1.15,0.27,2.15,0.5,2.77,0.64c-0.74,0.54-1.64,1.38-2.69,1.89
	c-1.4,0.68-2.94,1.6-4.39,1.56c-10.97-0.29-21.93-0.91-32.91-1.19c-9.11-0.23-18.23-0.07-27.35-0.18
	c-13.1-0.15-26.2-0.21-39.29-0.65c-7.87-0.26-15.72-1.25-23.58-1.75c-3.84-0.24-7.7-0.03-11.55-0.17c-1.14-0.04-2.26-0.77-3.41-0.8
	c-4.59-0.12-9.17-0.13-13.76-0.06c-0.39,0.01-0.76,0.85-1.2,1.38c-3.29-4.99-6.72,2.49-10.31-0.25c0-2.72,0-5.67,0-9.25
	c1.64,0.45,3.29,0.48,4.19,1.31c0.55,0.51-0.04,2.26-0.14,3.68c0.69-0.06,1.74-0.15,2.92-0.25c0-1.53,0-2.86,0-3.87
	c6.86,0,13.65,0.05,20.44-0.02c2.89-0.03,5.77-0.43,8.65-0.41c3.97,0.03,7.94,0.32,11.9,0.48c2.49,0.1,4.98,0.22,7.47,0.25
	c3.9,0.04,7.81-0.02,11.71,0.06c0.96,0.02,1.9,0.57,2.86,0.64c2.06,0.15,4.14,0.3,6.21,0.2c5.07-0.25,10.65-2.13,15.07-0.59
	c5.28,1.83,10.29,0.46,15.75,1.84c-0.96-3.57,0.96-3.92,3.39-3.88c17.22,0.26,34.45,0.47,51.67,0.8c1.19,0.02,2.35,0.99,3.56,1.42
	c1.36,0.48,3.55,1.59,4.01,1.11c1.73-1.8,2.4,0.01,3.28,0.64c0.45,0.33,0.71,1.79,0.63,1.83c-1.05,0.49-2.16,0.86-3.28,1.17
	C804.8,140.57,804.28,140.5,803.79,140.52c-2.99,0.15-5.96,0.3-8.93,0.44c0.13,0.7,0.25,1.39,0.38,2.09
	C798.09,142.21,800.94,141.36,803.79,140.52z"/>
<path d="M636.91,758.44c1.29-1.35,2.59-2.71,3.69-3.86c-0.22-0.01-1.18,0.2-1.81-0.17c-0.63-0.36-1.18-1.27-1.27-2.01
	c-0.05-0.4,0.89-1.15,1.5-1.32c0.94-0.26,1.97-0.2,2.97-0.19c14.73,0.22,29.46,0.35,44.19,0.77c2.39,0.07,4.7,1.78,7.12,2.09
	c3.31,0.42,6.69,0.25,10.04,0.3c14.17,0.18,28.34,0.37,42.52,0.49c7.92,0.07,15.75,0.62,23.76-0.87c6.73-1.25,13.91-0.15,20.88-0.1
	c1.24,0.01,2.49,0,3.73-0.04c2.82-0.1,5.61-0.58,7.98,1.88c0.78,0.81,2.53,0.81,3.86,0.91c4.23,0.32,8.47,0.43,12.69,0.84
	c0.86,0.08,1.64,1.09,2.45,1.67c-0.82,0.59-1.62,1.67-2.47,1.71c-14.15,0.7-28.26,2.39-42.49,1.24c-9.83-0.8-19.71-1.08-29.58-1.13
	c-12.63-0.07-25.53-1.19-37.8,1.01c-8.71,1.56-17.05,0.92-25.54,1.08c-8.59,0.16-17.2-0.42-25.8-0.62c-2.37-0.05-4.74,0.15-7.1,0.13
	c-0.97-0.01-2.35,0.05-2.85-0.53c-1.56-1.81-3.19-1.74-5.32-1.35c-1.47,0.27-3.12-0.47-4.69-0.76
	C637.34,759.21,637.12,758.83,636.91,758.44z"/>
<path d="M807.01,741.97c-18.65,0-37.3,0.03-55.94-0.01c-23.37-0.05-46.75-0.22-70.12-0.24c-11.26-0.01-22.51,0.32-33.77,0.26
	c-2.48-0.01-4.99-0.91-7.42-1.64c-0.85-0.25-1.47-1.23-2.2-1.88c0.95-0.43,1.89-1.17,2.87-1.24c7.16-0.46,14.32-0.89,21.49-1.14
	c13.15-0.45,26.31-0.97,39.46-1.11c23.02-0.24,46.04-0.18,69.06-0.34c7.48-0.05,14.96-0.67,22.43-0.51
	c4.04,0.08,8.05,1.28,12.09,1.91c2.7,0.42,5.41,0.82,8.14,1c2.61,0.18,5.25-0.08,7.86,0.15c0.87,0.07,1.66,1.05,2.48,1.61
	c-0.7,0.56-1.34,1.49-2.11,1.61c-4.74,0.74-9.51,1.3-14.27,1.92C807.05,742.2,807.03,742.08,807.01,741.97z"/>
<ellipse cx="750.85" cy="551.68" rx="962.37" ry="0.15"/>
<ellipse cx="751.24" cy="598.94" rx="963.2" ry="0.22"/>
<ellipse cx="750.56" cy="214.15" rx="962.58" ry="0.23"/>
<ellipse cx="751.35" cy="165.33" rx="962.21" ry="0.15"/>
<ellipse cx="308.14" cy="406.8" rx="334.71" ry="0.1"/>
<ellipse cx="1229.72" cy="406.21" rx="284.25" ry="0.08"/>
<path d="M72.55,669.91c0.16-1.2,0.29-2.18,0.41-3.09c0.52,1.46,1.07,2.99,1.65,4.62c-2.17,1.24-48.86,0.4-53.26-0.66
	c1.74-1.02,2.99-1.75,4.09-2.4c1.83-0.46,4.14-1.86,5.44-1.22c3.36,1.65,6.65,0.54,9.92,0.66c4.62,0.18,9.26-0.24,13.89-0.34
	c2.85-0.07,5.71-0.03,8.56-0.04l6.57-0.11C70.63,668.1,71.45,668.87,72.55,669.91z"/>
<path d="M20.09,362.5c-1.93,17.44,0.98,34.85-3.69,51.57c-0.44-0.04-0.87-0.07-1.31-0.11c0.4-18.58,0.8-37.15,1.21-55.84
	c0.47,0.37,1.16,0.9,1.84,1.43C15.67,362.28,18.17,362.22,20.09,362.5z"/>
<path d="M925.69,608.26c12.57,0,24.98,0,37.25,0c-1.7,4.16-3.1,4.7-7.73,4.31c-3.33-0.28-6.76,0.67-10.11,0.5
	c-5.46-0.27-10.92-0.85-16.32-1.67C927.68,611.24,926.82,609.47,925.69,608.26z"/>
<path d="M710.54,673.45c1.28-1.68,2.56-3.5,4.01-5.2c0.52-0.61,1.73-1.47,2.09-1.26c3.87,2.21,7.95,0.51,11.9,0.84
	c5.37,0.46,10.75,0.87,16.75,1.36c-1.01,1.85-1.57,2.88-1.63,2.99c-5.61,0.45-10.63,1.05-15.65,1.22
	C722.05,673.61,716.09,673.45,710.54,673.45z"/>
<path d="M1052.36,610.04c-4.67,4.41-25.23,5.09-32.78,0.66c1.97-0.63,3.47-1.11,4.97-1.59c0.02-0.22,0.05-0.45,0.07-0.67
	c-2.01-0.27-4.01-0.54-6.02-0.82c-0.07-0.19-0.13-0.39-0.2-0.58c0.76-0.28,1.55-0.87,2.27-0.79c10.51,1.1,21.01,2.29,31.52,3.47
	C1052.26,609.72,1052.31,609.93,1052.36,610.04z"/>
<path d="M698.72,649.92c1.2,0.59,2.21,1.52,3.23,1.52c7.86,0.04,15.72-0.04,23.58-0.23c1.29-0.03,2.57-0.76,4.12-1.24
	c2.56,1.76,0.85,3.91-0.04,5.88c-5.32,0-10.56,0-15.46,0c-1.56,0.76-2.97,1.45-4.38,2.14c-0.12-0.24-0.24-0.49-0.35-0.73
	c0.53-0.19,1.06-0.38,1.92-0.69c-3.85-0.65-7.38-1.24-12.02-2.02c1.57,0.73,2.19,1.01,3.26,1.5c-1.46,0-2.47,0-3.86,0
	C698.72,653.98,698.72,651.9,698.72,649.92z"/>
<path d="M1007.65,611.46c-11.08,3.68-22.5,1.34-33.74,2.03c-0.04-0.57-0.09-1.15-0.13-1.72c1.85-0.17,3.69-0.42,5.55-0.5
	c1.97-0.09,3.94-0.02,6.06-0.02c-1.12-2.22-5.3,0.93-4.95-3.97c9.2,0.82,18.24,1.63,27.27,2.43
	C1007.68,610.3,1007.66,610.88,1007.65,611.46z"/>
<path d="M1271.34,613.26c-13.35,1.57-26.42-0.08-39.45-4.11c0.72-0.25,1.47-0.79,2.14-0.69c3.77,0.53,7.45-1.05,11.45,0.65
	c3.07,1.3,7.09,0.24,10.67,0.52c3.09,0.24,6.16,0.87,9.23,1.35c2.07,0.33,4.14,0.69,6.21,1.04
	C1271.5,612.43,1271.42,612.84,1271.34,613.26z"/>
<path d="M746.53,610.81c-3.03,0.42-6.05,1.11-9.1,1.22c-5.96,0.2-11.94,0.3-17.89-0.03c-2.68-0.15-5.29-1.41-7.94-2.16
	c0.06-0.47,0.12-0.93,0.17-1.4c11.48,0,22.96,0,34.9,0c-0.02,0.36-0.09,1.37-0.16,2.38L746.53,610.81z"/>
<path d="M1100.29,609.46c2.02-0.13,4.03-0.28,6.05-0.38c0.61-0.03,1.31,0.31,1.84,0.13c2.68-0.92,5.38-0.56,8.11-0.44
	c3.5,0.16,7.02,0.16,10.52,0.03c3.79-0.14,7.63-0.71,10.15,3.33c-12.17,2.86-24.32-0.27-36.55-1.05
	C1100.37,610.55,1100.33,610,1100.29,609.46z"/>
<path d="M1360.81,610.39c-11.8,1.22-23.58,4.07-36.08-0.68c1.23-0.76,2.15-1.82,3.06-1.81c10.68,0.15,21.37,0.45,32.05,0.75
	c0.39,0.01,0.77,0.49,1.15,0.75C1360.93,609.74,1360.87,610.06,1360.81,610.39z"/>
<path d="M804.69,610.49c5.08-5,11.27-3.18,16.86-2.94c3.56,0.15,7.02,2.56,10.56,3.97C827.56,614.73,809.57,614.06,804.69,610.49z"
	/>
<path d="M1226.02,611.45c-12.99,1.96-25.35,2.8-38.58,1.43C1192.66,608.73,1222.07,607.7,1226.02,611.45z"/>
<path d="M746.52,610.81c14.22-0.41,28.43-0.83,42.65-1.24c0.19,0.5,0.38,1.01,0.57,1.51c-1.03,0.62-2.06,1.78-3.09,1.78
	c-8.26,0.05-16.51-0.11-24.77-0.2c-3.47-0.04-6.96,0.11-10.41-0.18c-1.68-0.14-3.29-1.09-4.93-1.67
	C746.53,610.81,746.52,610.81,746.52,610.81z"/>
<path d="M1060.33,609.82c2.37-0.62,4.72-1.68,7.11-1.76c3.25-0.11,6.52,0.57,9.79,0.84c5.17,0.44,10.35,0.8,15.53,1.24
	c1.74,0.15,3.47,0.42,5.13,1.39c-12.58,2.35-25.03,1.03-37.48-0.36C1060.38,610.72,1060.35,610.27,1060.33,609.82z"/>
<path d="M919.76,612.06c-5.55,0.34-11.1,0.82-16.65,0.95c-4.05,0.09-8.13-0.21-12.17-0.53c-0.68-0.05-1.28-1.11-1.92-1.7
	c0.73-0.63,1.43-1.77,2.18-1.81c3.96-0.19,7.93-0.1,11.9-0.12c3.09-0.01,6.2-0.28,9.26,0.02c2.57,0.25,5.08,1.17,7.61,1.79
	C919.89,611.14,919.83,611.6,919.76,612.06z"/>
<path d="M875.19,612.41c-10.08,0-20.17,0-30.43,0c-0.07-0.91-0.19-1.75-0.12-1.77c4.46-1,8.15-4.47,13.37-3.35
	c4.03,0.86,8.37,0.18,12.5,0.76c1.75,0.25,3.29,1.97,4.92,3.02C875.35,611.52,875.27,611.97,875.19,612.41z"/>
<path d="M1148.66,609.11c3.98,0,8.03,0.47,11.92-0.1c6.74-0.98,13.27-0.05,19.84,1.01c0.67,0.11,1.22,0.9,1.83,1.38
	c-0.76,0.45-1.49,1.25-2.27,1.3c-4.02,0.25-8.07,0.64-12.06,0.37c-6.13-0.41-12.23-1.3-18.34-2.02c-0.37-0.04-0.69-0.49-1.03-0.74
	C1148.58,609.91,1148.62,609.51,1148.66,609.11z"/>
<path d="M316.36,612.05c-13.22,0.9-26.42,1.34-39.96-1.34C280.07,608.15,312.13,609.11,316.36,612.05z"/>
<path d="M28.59,405.72c3.72-0.4,6.7-0.71,9.68-1.03c8.59-0.92,16.84,2.73,25.43,1.95c0.36-0.03,0.77,0.47,1.21,0.76
	C61.52,410.04,31.85,409.24,28.59,405.72z"/>
<path d="M1278.71,611.06c3.67-0.64,7.17-1.36,10.7-1.85c4.59-0.63,9.2-1.25,13.82-1.49c1.19-0.06,2.46,1.29,3.69,2
	c-0.88,1.05-1.76,2.99-2.65,3c-8.32,0.05-16.65-0.23-24.98-0.44C1279.19,612.27,1279.09,611.87,1278.71,611.06z"/>
<path d="M1367.93,610.18c9.93-1.78,19.93-0.52,29.9-0.07c0.17,0.32,0.35,0.64,0.52,0.96c-1.5,0.8-3.02,2.3-4.51,2.26
	c-5.73-0.14-11.45-0.8-17.18-1.2c-1.73-0.12-3.48,0.05-5.21-0.06c-1.23-0.08-2.44-0.4-3.65-0.61
	C1367.84,611.04,1367.89,610.61,1367.93,610.18z"/>
<path d="M732.37,624.35c10.06,0,20.12,0,30.19,0c0.08,0.39,0.15,0.78,0.23,1.18c-0.33,0.39-0.63,1.08-0.99,1.12
	c-5.06,0.52-10.13,1.15-15.21,1.33c-2.62,0.09-5.74,0.99-7.55-2.38c-0.29-0.54-2.11-0.24-3.21-0.39c-1.21-0.17-2.42-0.42-3.63-0.64
	C732.26,624.49,732.32,624.42,732.37,624.35z"/>
<path d="M54.87,503.47c-10.72,3.17-22.45,2.08-24.09-2.59c5.91,0,11.81-0.23,17.67,0.12C50.64,501.13,52.74,502.61,54.87,503.47z"/>
<path d="M1431.34,358.86c-40.96,0-81.91,0-122.87,0c0-0.06,0-0.13,0-0.19c40.96,0,81.91,0,122.87,0
	C1431.34,358.73,1431.34,358.8,1431.34,358.86z"/>
<path d="M56.36,552.56c-2.19,2.11-19.95,2.2-23.21-0.08c1.3-2.58,2.68-4.47,6.23-3.23c1.46,0.51,3.38-0.31,5.09-0.51
	c0.48-0.06,1.02-0.25,1.43-0.1C49.35,549.88,52.78,551.2,56.36,552.56z"/>
<path d="M359.21,610.59c-10.78,2.13-21.63,3.11-32.54,0.61C337.45,609.01,348.31,610.08,359.21,610.59z"/>
<path d="M411.42,608.48c1.99-0.29,3.98-0.8,5.98-0.84c6.34-0.14,12.69-0.21,19.03-0.04c1.08,0.03,2.13,1.35,3.19,2.07
	c-1.02,0.55-2.02,1.54-3.06,1.57c-4.59,0.14-9.2,0.28-13.76-0.11c-3.75-0.32-7.45-1.37-11.17-2.1
	C411.56,608.85,411.49,608.67,411.42,608.48z"/>
<path d="M622.74,610.09c12.54,0,25.09,0,38.63,0c-1.17,1.07-1.71,1.52-2.2,2.03c-0.28,0.29-0.5,0.98-0.71,0.97
	c-5.35-0.3-10.73-1.22-16.02-0.83c-3.88,0.29-7.53-1.02-11.37-0.48c-2.7,0.38-5.49,0.07-8.24,0.07
	C622.81,611.26,622.78,610.67,622.74,610.09z"/>
<path d="M191.17,610.34c9.54,0,19.09,0,28.87,0c0.05,1.8-0.18,2.54-2.92,2.37c-7.44-0.46-14.93-0.19-22.4-0.27
	c-1.22-0.01-2.44-0.35-3.66-0.54C191.08,611.38,191.12,610.86,191.17,610.34z"/>
<path d="M366.32,608.76c10.89,0.87,20.95,1.67,31.01,2.47C392.44,614.91,368.73,613.14,366.32,608.76z"/>
<path d="M66.44,609.86c9.11,0,18.19-0.05,27.27,0.06c0.99,0.01,1.98,0.92,2.97,1.41c-1.05,0.44-2.09,1.21-3.15,1.26
	c-5.24,0.22-10.51,0.53-15.74,0.24c-3.89-0.22-8.47,1.46-11.33-2.94C66.36,609.74,66.46,609.45,66.44,609.86z"/>
<path d="M237.09,609.95c9.69,0,19.39,0,29.2,0c-3.07,3.51-24.5,4.26-29.26,1.16C237.05,610.72,237.07,610.33,237.09,609.95z"/>
<path d="M538.64,609.72c12.16,0,23.32,0,35.05,0C571.03,612.78,542.63,612.86,538.64,609.72z"/>
<path d="M174.3,610.98c-2.12,0.21-4.24,0.43-6.36,0.63c-1.1,0.1-2.52-0.24-3.24,0.33c-1.61,1.26-2.9,0.31-4.36,0.02
	c-3.09-0.6-6.22-1.01-9.29-1.68c-0.83-0.18-1.52-1.02-2.03-1.92c8.68-0.62,17.04-0.44,25.27,1.2
	C174.3,610.04,174.3,610.51,174.3,610.98z"/>
<path d="M30.89,164.94c10.28,0,19.75,0,29.23,0c0.05,0.58,0.09,1.16,0.14,1.75c-2.26,0.28-4.51,0.69-6.78,0.82
	c-5.4,0.31-10.81,0.78-16.2,0.57C35.28,168,33.35,166.21,30.89,164.94z"/>
<path d="M614.82,612.03c-2.98,0-6.09-0.56-8.9,0.11c-6.82,1.64-13.51,0.1-20.26-0.09c-0.77-0.02-1.52-0.78-2.28-1.2
	c0.79-0.34,1.57-0.98,2.36-0.98c8.76-0.03,17.52,0.02,26.27,0.12c1.02,0.01,2.04,0.47,3.06,0.71
	C614.98,611.15,614.9,611.59,614.82,612.03z"/>
<path d="M451.9,609.16c10.18-1.78,20.22,0.39,30.31,1.15c0.03,0.39,0.05,0.79,0.08,1.18c-5.06,0.43-10.14,1.36-15.18,1.17
	c-5.12-0.2-10.2-1.5-15.3-2.32C451.84,609.94,451.87,609.55,451.9,609.16z"/>
<path d="M55.06,454.59c-4.8,0.98-10.2,3.8-14.26,2.48c-4.82-1.57-9.85,0.94-14.16-2.35c9.41-1.53,18.84-2.15,28.33-1.31
	C55.01,453.8,55.04,454.19,55.06,454.59z"/>
<path d="M705.47,674.28c-2.71-0.65-4.6-0.91-6.31-1.59c-1.12-0.45-2-1.51-2.99-2.3c0.82-1.01,1.45-2.32,2.5-2.96
	c3.42-2.08,7.16-1.88,8.84,0.47c0.73,1.01,1.49,2.77,1.08,3.64C708,672.8,706.35,673.56,705.47,674.28z"/>
<path d="M53.95,309.39c-7.95,2.52-15.77,4.16-24.23,2.52C33.24,307.75,50.99,306.15,53.95,309.39z"/>
<path d="M668.83,609.7c9.64-1.7,19.36-0.6,30.37-0.55c-1.45,1.53-2.13,2.86-2.8,2.86c-8.52-0.04-17.04-0.26-25.57-0.49
	c-0.68-0.02-1.35-0.44-2.02-0.68C668.82,610.47,668.82,610.09,668.83,609.7z"/>
<path d="M527.61,612.16c-9.06,2.13-18.2,1.02-27.98,0.89C503.7,610.26,523.46,609.58,527.61,612.16z"/>
<path d="M138.27,613.09c-8.98,0-17.97,0-26.96,0c-0.08-0.42-0.17-0.84-0.25-1.26c3.23-0.81,6.45-2.26,9.69-2.3
	C131.48,609.37,137.44,610.84,138.27,613.09z"/>
<path d="M33.11,260.2c1.26-0.35,2.53-1.02,3.77-0.98c6.08,0.19,12.15,0.53,18.22,0.93c0.75,0.05,1.46,0.75,2.18,1.15
	c-0.68,0.35-1.33,0.91-2.04,1c-4.15,0.52-8.32,1.34-12.47,1.25c-3.25-0.07-6.47-1.31-9.71-2.04
	C33.08,261.08,33.1,260.64,33.11,260.2z"/>
<path d="M53.2,212.45c-1.2,0.93-1.98,2.04-2.77,2.05c-6.77,0.13-13.55,0.06-20.32,0.02c-0.3,0-0.61-0.35-0.92-0.54
	C31.18,211.24,47.99,209.86,53.2,212.45z"/>
<path d="M31.45,597.72c8.05-0.14,16.11-0.95,24.16,0.15c0.03,0.51,0.06,1.02,0.09,1.54c-2.22,0.17-4.44,0.32-6.66,0.53
	c-3.55,0.35-7.1,1.02-10.66,1.03c-2.36,0.01-4.72-0.9-7.07-1.4C31.36,598.95,31.41,598.33,31.45,597.72z"/>
<path d="M34.37,358.08c6.02,0,11.37,0,16.72,0c1.35,0,2.73-0.14,4.02,0.14c0.62,0.13,1.21,1.04,1.48,1.73
	c0.08,0.21-0.94,1.28-1.41,1.24c-6.6-0.48-13.2-1.07-19.8-1.67C35.23,359.5,35.1,359.14,34.37,358.08z"/>
<path d="M1406.32,611.45c5.18-3.62,13.82-3.59,17.12-0.26C1417.63,614.2,1411.95,612.06,1406.32,611.45z"/>
<ellipse cx="51.37" cy="680.62" rx="48.23" ry="0.02"/>
<ellipse cx="51.38" cy="656.63" rx="48.25" ry="0.01"/>
<ellipse cx="97.78" cy="454.25" rx="38.11" ry="0.09"/>
<ellipse cx="13.13" cy="668.63" rx="0.01" ry="11.13"/>
<ellipse cx="89.62" cy="668.62" rx="0.01" ry="11.13"/>
<path d="M35.97,105.42c0.17-2.15,0.35-4.31,0.52-6.46c0.41-0.82,0.66-1.8,1.27-2.44c0.99-1.04,2.45-2.77,3.28-2.56
	c1.31,0.34,2.54,1.9,3.28,3.23c0.53,0.96,0.21,2.39,0.83,3.74c0.16-0.67,0.43-1.34,0.46-2.02c0.2-4.67,0.18-4.67,5.29-4.12
	c-0.14,3.39,1.19,6.91-1.39,10.09c0.32-3.14,0.65-6.29,1.01-9.78c-1.84,0.14-2.9,0.22-3.94,0.3c0.04,7.37,0.04,7.37-3.09,7.71
	c0-2,0.25-4.02-0.11-5.92c-0.17-0.93-1.34-1.86-2.28-2.38c-0.39-0.21-2.03,0.75-1.99,1.01c0.5,3.36,0.23,7.47,2.13,9.79
	c1.67,2.04,5.75,1.65,8.37-0.85c-2.52,4.16-8.27,3.61-11.26-1.32C37.54,104.13,36.76,104.78,35.97,105.42z"/>
<path d="M175.62,96.59c0.16,6.52-2.6,10.28-7.42,9.79c-1.35-0.14-2.89-0.9-3.85-1.86c-2.39-2.39-2.75-9.68-0.78-12.41
	c1.94-2.69,4.61-3.13,7.66-2.22C174.73,90.93,175.51,92.09,175.62,96.59z M174.12,96.67c0.33-2.29,0.19-4.9-3.43-5.7
	c-2.91-0.64-5.86,0.81-6.56,3.31c-1.32,4.71-0.05,9.62,2.79,10.59c0.46,0.16,0.98,0.15,1.47,0.17
	C172.31,105.21,173.7,103.32,174.12,96.67z"/>
<path d="M143.31,97.81c0.03-5.5,1.41-7.08,5.98-8.58c3.17-1.04,4.74,0.55,6.1,2.73c2,3.2,0.72,10.36-2.51,12.25
	c-1.73,1.02-4.48,1.71-6.19,1.04C143.58,104.04,143.11,100.78,143.31,97.81z M143.96,98.16c1.13,2.03,1.93,4.43,3.55,5.93
	c0.71,0.66,3.38-0.09,4.69-0.93c3.08-1.98,4.02-8.47,1.7-11.09c-0.73-0.83-2.25-1.47-3.34-1.38
	C145.62,91.1,144.74,92.29,143.96,98.16z"/>
<path d="M187.85,96.08c-0.18,5.34-2.86,9.15-6.38,9.07c-3.32-0.07-5.91-2.79-5.48-6.19c0.68-5.41,2.33-8.81,6.8-8.52
	C186.85,90.7,187.99,91.88,187.85,96.08z M186.64,95.48c0.04-1.38,0.1-3.62-2.95-3.75c-4.01-0.17-6.5,2.7-6.44,7.67
	c0.03,2.72,1.71,4.4,4.38,4.63C183.98,104.24,186.55,100.09,186.64,95.48z"/>
<path d="M107.9,106.45c1.86,0.04,3.73,0.22,5.57,0.05c0.71-0.07,1.35-0.93,2.03-1.44c-0.62-0.46-1.17-1.17-1.86-1.34
	c-1.11-0.27-2.31-0.2-3.47-0.27c-0.03-0.37-0.05-0.73-0.08-1.1c0.94-0.11,1.91-0.11,2.81-0.37c1.2-0.35,3.13-0.71,3.32-1.43
	c0.29-1.11-0.64-2.54-1.06-3.83c0.88,0.3,1.77,0.6,2.65,0.9c0,0-0.1-0.13-0.1-0.13c-0.01,0.98,0,1.97-0.04,2.95
	c-0.2,4.74,1.2,6.23,5.87,6.18c2.09-0.02,4.17-0.05,6.26-0.07c0,0-0.09-0.05-0.09-0.05c-4.39,1.73-8.61,1.58-12.63-1.14
	C114.42,108.4,111.2,107.79,107.9,106.45z"/>
<path d="M36.05,97.83c-2.15-2.68-4.81-4.11-8.08-2.33c-3.78,2.06-3.25,5.41-2.05,8.79c-0.93-1.43-1.86-2.86-2.82-4.35
	c-0.16,1.47-0.22,3.24-0.56,4.96c-0.54,2.74-2.07,3.1-4.59,1.21c1.83,0.61,3.92,0.88,3.66-1.79c-0.47-4.94,2.31-8.41,4.66-12.15
	c0,0.84,0,1.68,0,2.62C30.78,92.64,34.63,93.9,36.05,97.83z"/>
<path d="M93.05,104.9c-0.41-1.79-0.82-3.58-1.27-5.52c-3.28-0.21-4.09,1.63-3.8,4.36c0.18,1.74,0.3,3.27-2.14,3.38
	c-2.49,0.11-2.85-1.43-2.86-3.35c-0.01-0.99-0.19-2.02,0-2.97c0.4-2.03,1.09-5.79,1.48-5.76c2.89,0.18,5.73,1.11,8.59,1.8
	c0,0-0.09-0.11-0.09-0.11c0,2.76,0,5.53,0,8.29L93.05,104.9z M83.99,100.44c0,0.99-0.2,2.04,0.05,2.96c0.27,1,0.96,1.88,1.46,2.81
	c0.5-0.89,1.45-1.8,1.42-2.68c-0.08-2.63,0.36-4.64,3.34-5.32c0.48-0.11,0.79-0.98,1.18-1.5c-0.47-0.31-0.9-0.76-1.41-0.89
	C84.95,94.46,83.98,95.22,83.99,100.44z"/>
<path d="M108.43,95.98c-2.82,2.89-2.95,6.8-0.34,10.56c-0.98-0.57-1.95-1.14-3.05-1.78c-0.2,0.22-0.87,0.96-1.54,1.7l0.04,0.07
	c0-2.84,0.14-5.68-0.08-8.51c-0.08-1.07-1.08-3.01-1.49-2.97c-3.03,0.33-6.02,1.06-9.02,1.67c0,0,0.09,0.11,0.09,0.11
	c0.41-0.77,0.69-2.09,1.24-2.21c2.17-0.49,4.52-1.11,6.6-0.69c1.64,0.34,2.98,2.14,4.53,3.36C105.97,97.06,107.2,96.52,108.43,95.98
	z"/>
<path d="M261.17,105.92c0-3.64,0.07-6.8-0.02-9.96c-0.07-2.32-0.43-4.64-0.52-6.96c-0.02-0.54,0.53-1.11,0.82-1.67
	c0.5,0.45,1.46,0.91,1.45,1.34c-0.18,5.42-0.5,10.84-0.81,16.25C262.07,105.1,261.79,105.26,261.17,105.92z"/>
<path d="M247.29,105.35c-0.37-5.54-0.76-11.08-1.07-16.63c-0.02-0.44,0.59-0.91,0.91-1.37c0.53,0.42,1.54,0.87,1.52,1.26
	c-0.31,5.6-0.76,11.19-1.18,16.79C247.42,105.39,247.35,105.37,247.29,105.35z"/>
<path d="M232.72,105.57c0-4.16,0.05-8.32-0.03-12.47c-0.03-1.44-0.52-2.88-0.55-4.32c-0.01-0.47,0.75-0.96,1.16-1.44
	c0.41,0.41,1.19,0.83,1.17,1.22c-0.29,5.65-0.68,11.3-1.05,16.95C233.19,105.53,232.95,105.55,232.72,105.57z"/>
<path d="M132.84,100.48c2.17,1.84,3.57,3.04,4.96,4.23c-0.87,0.76-1.72,2.11-2.61,2.15c-1.26,0.05-3.31-0.59-3.64-1.47
	C131.14,104.33,132.17,102.72,132.84,100.48z"/>
<path d="M103.49,106.46c-3.31,1.16-4.51,0.48-4.51-2.61c0-1.13,0.13-2.26,0.2-3.39c-0.38-0.05-0.76-0.1-1.14-0.15
	c-0.16,1.45-0.08,2.98-0.56,4.31c-0.35,0.97-1.44,1.68-2.2,2.5c-0.74-0.74-1.48-1.48-2.22-2.22c0,0-0.1,0.12-0.1,0.12
	c0.83,0.44,1.65,0.87,2.48,1.31c0.31-0.86,0.73-1.71,0.89-2.6c0.24-1.33,0.16-2.73,0.5-4.02c0.14-0.54,1.07-1.33,1.5-1.24
	c0.71,0.14,1.64,0.76,1.88,1.4c0.32,0.87,0.24,1.99,0.04,2.94c-0.59,2.81,0.44,4.04,3.3,3.73L103.49,106.46z"/>
<path d="M69.56,100.98c0.12,0.61,0.23,1.22,0.35,1.82c0.82,4.1-0.41,5.53-4.58,5.17c-1.33-0.12-2.63-0.54-3.84-1.43
	c1.32,0.16,2.68,0.58,3.95,0.39c1.26-0.18,2.43-0.98,3.64-1.51c-1.06-0.65-2.06-1.44-3.19-1.92c-0.82-0.35-1.8-0.29-2.79-1.2
	c2.18-0.41,4.35-0.82,6.53-1.22C69.65,101.08,69.56,100.98,69.56,100.98z"/>
<path d="M71.92,105.69c2.21,0.11,4.42,0.25,6.64,0.33c0.71,0.03,1.43-0.09,2.41-0.16c0-3.3,0-6.42,0-9.54
	c1.95,2.05,2.46,7.82,0.86,9.82C80.61,107.66,74.48,107.39,71.92,105.69z"/>
<path d="M204.43,91.47c-2.34,3.46-1.89,5.39,1.39,7.91c1,0.77,1.41,2.3,2.6,4.37c-2.67-0.64-4.04-0.96-5.89-1.4
	c0,1.48,0,2.63,0,3.79c-1.63-4.13-0.8-5.11,3.89-4.59C201.59,96.57,200.97,93.44,204.43,91.47z"/>
<path d="M26.21,92.34c-1.34-2.2-3.27-2.32-4.47-0.21c-0.71,1.23-1.2,2.59-2.01,4.39c-1.71-3.11-2.64-6.86-7.03-4.77
	c2.92-2.98,4.91-0.88,6.22,0.76c2.42-0.95,4.34-2.05,6.4-2.41C27.21,89.77,27.37,90.98,26.21,92.34z"/>
<path d="M73.79,95.21c-0.73,0.89-1.46,1.78-2.86,3.49c2.62-0.18,4-0.28,5.38-0.38c-5.18,0.46-4.87,3.9-4.25,7.52
	c-0.83-1.61-1.65-3.23-2.49-4.85c0-0.01,0.09,0.1,0.08,0.09c-0.32-1.52-0.64-3.02-1.08-5.1c0.9,1.18,1.54,2.01,1.7,2.22
	C71.43,97.2,72.61,96.2,73.79,95.21z"/>
<path d="M117.8,97.61c0.21-2.91,2.4-3.19,4.55-3.21c2.36-0.03,3.68-0.39,3.3-3.38c-0.25-1.96,0.83-3.75,3.32-1.79l0.07-0.03
	c-1.66-0.05-2.82,0.22-2.51,2.42c0.19,1.33-0.21,2.74-0.38,4.45c-3.54-1.55-6.21-1.01-8.45,1.4L117.8,97.61z"/>
<path d="M128.97,89.23c2.01,5.68,2.8,11.41,0.74,17.27c0,0,0.09,0.05,0.09,0.05c-0.25-5.78-0.5-11.56-0.75-17.34L128.97,89.23z"/>
<path d="M99.11,26.43c2.34,0.64,4.03,1.42,5.74,1.47c1.68,0.05,3.37-0.65,5.16-0.54c-0.52,0.14-1.03,0.29-1.42,0.39
	c5.28,0,10.6-0.06,15.93,0.02c3.59,0.05,7.19,0.51,10.77,0.36c1.87-0.08,3.7-1.08,5.85-1.77c0.64,2.89,3.26,2.41,6.12,1.3
	c0.55-0.21,1.15-0.44,1.72-0.42c10.78,0.36,21.56,0.66,32.33,1.17c4.76,0.22,9.49,1.19,14.24,1.24c17.33,0.21,34.66,0.21,51.99,0.19
	c1.33,0,2.67-0.8,4.34-1.34c0.04,0.03,0.67,1.15,1.48,1.29c2.74,0.48,5.61,0.3,8.28,0.98c1.79,0.46,4.69,1.9,4.71,2.96
	c0.07,2.95-2.74,3.44-5.2,3.32c-3.52-0.16-7.02-0.76-10.54-0.82c-12.67-0.23-25.34-0.31-38-0.45c-7.71-0.08-15.43-0.23-23.14-0.18
	c-1.64,0.01-3.27,0.8-4.59,1.15c-0.5-0.59-1.14-1.92-1.67-1.87c-1.65,0.15-3.24,0.81-4.98,1.31c-1.19-0.44-2.83-1.54-4.49-1.57
	c-5.37-0.1-10.75,0.2-16.49,0.36c-0.16-0.1-1.44-1.25-1.71-1.05c-2.15,1.61-5.8-2.24-7.27,1.71c-1.37-2.05-3.03-3.1-5.03-0.19
	c-1.92-2.34-3.5-2.29-4.39-0.82c-2.22,0-3.75,0.08-5.28-0.02c-1.9-0.12-3.8-0.54-5.7-0.55c-1.52,0-3.03,0.42-5.25,0.77
	c-2.15-1.75-4.6-1.7-6.03,0.1c-2.35-0.29-4.2-0.63-6.06-0.73c-7.01-0.37-14.01-0.87-21.02-0.93c-9.81-0.08-19.62,0.26-29.43,0.2
	c-1.05-0.01-3.1-1.9-2.97-2.21c0.62-1.52,1.61-3.67,2.88-4c2.59-0.67,5.44-0.34,8.19-0.36c6.62-0.04,13.23-0.09,19.85-0.03
	c1.86,0.01,3.77,0.16,5.58,0.58C97.37,28.37,97.35,28.46,99.11,26.43z"/>
<path d="M1341.56,52.16c-5.7-1.17-11.46-2.12-17.08-3.6c-3.33-0.88-5.52-3.06-5.18-7.15c0.33-3.94,2.27-5.86,6.03-6.32
	c3.19-0.39,3.97-2.14,2.67-4.98c-0.36-0.79-0.64-1.63-1.06-2.39c-3.87-7.09-1.88-12.06,5.89-14.5c1.78-0.56,3.61-0.99,5.45-1.33
	c4.01-0.75,7.53,0.24,9.88,3.71c2.67,3.96,4.43,8.08,1.55,12.86c-2.81,4.67-2.64,5,2.07,7.01c3.48,1.49,4.81,4.21,4.52,7.79
	c-0.31,3.8-3.17,6.97-7.11,7.67c-2.44,0.43-4.97,0.36-7.45,0.52C1341.68,51.7,1341.62,51.93,1341.56,52.16z M1341.43,50.43
	c0.07-0.3,0.14-0.6,0.21-0.9c2.24-0.1,4.49-0.07,6.71-0.34c4.84-0.58,7.72-5.79,5.44-9.66c-2.27-3.85-9.13-4.54-12.21-1.24
	c-1.02,1.09-2.02,2.2-3.11,3.21c-1.97,1.83-3.99,1.95-4.99-0.8c-1.51-4.16-3.97-5.12-8.08-3.71c-2.2,0.75-3.94,1.32-4.15,3.97
	c-0.2,2.64,0.39,4.79,3.23,5.5C1330.12,47.85,1335.78,49.12,1341.43,50.43z M1327.97,25.37c0.44-0.26,0.82-0.38,1.06-0.63
	c3.93-4.07,5.86-4.06,10.04-0.44c1.65,1.43,3.63,2.79,5.68,3.32c1.18,0.31,3.49-0.69,4.11-1.78c1.93-3.39-1.47-10.61-5.2-11.82
	c-4.48-1.45-12.84,0.86-15.88,4.44C1325.82,20.78,1325.67,23.07,1327.97,25.37z M1335.88,41.79c3.85-3.97,7.13-7.37,10.25-10.59
	c-3.6-2.63-6.39-4.64-9.16-6.68c-1.84-1.36-3.56-1.59-5.19,0.35c-0.79,0.94-1.68,1.79-2.81,2.98
	C1331.13,32.21,1333.35,36.68,1335.88,41.79z"/>
<path d="M1178.25,18.07c5.87,0,11.74-0.15,17.6,0.05c5.05,0.17,7.72,2.73,7.64,7.78c-0.08,5.33-0.81,10.66-1.42,15.98
	c-0.26,2.25-1.73,3.53-4.12,3.51c-12.22-0.13-24.45,0.03-36.65-0.49c-6.72-0.29-7.13-1.3-7.15-8.19c-0.01-3.37-0.18-6.75,0.05-10.11
	c0.31-4.55,2.8-9.45,8.71-8.8c5.06,0.56,10.22,0.12,15.34,0.12C1178.25,17.95,1178.25,18.01,1178.25,18.07z M1178.25,20.23
	c0-0.06,0-0.12,0-0.18c-5,0-9.99-0.01-14.99,0c-4.99,0.01-6.73,1.56-6.93,6.57c-0.16,3.99,0.07,8-0.09,11.99
	c-0.1,2.48,0.7,3.77,3.29,3.82c12.71,0.28,25.42,0.64,38.13,0.8c0.83,0.01,2.33-1.32,2.41-2.13c0.53-5.45,0.9-10.92,1.03-16.4
	c0.07-3.02-1.9-4.45-4.87-4.46C1190.24,20.22,1184.24,20.23,1178.25,20.23z"/>
<path d="M31.86,32.96c-3.12,0.85-6.16,1.93-9.3,2.46c-3.92,0.66-5.86-2.83-7.22-5.26c-1.03-1.83,0.07-5.06,0.76-7.52
	c0.21-0.75,2.27-1.43,3.39-1.3c0.73,0.08,1.46,1.62,1.86,2.63c0.44,1.13,0.25,2.54,0.8,3.59c0.39,0.74,1.57,1.58,2.34,1.52
	c2.75-0.19,6.83-4.2,7.51-7.05c0.2-0.85,0.1-1.94,0.61-2.5c0.83-0.92,2.11-2.14,3.08-2.04c0.98,0.1,2.54,1.61,2.59,2.56
	c0.29,5.97,0.31,11.95,0.19,17.93c-0.02,0.84-1.2,2.31-1.87,2.33c-1.01,0.03-2.57-0.72-2.98-1.58
	C32.7,36.79,32.32,34.58,31.86,32.96z"/>
<path d="M1363.63,36.89c-3.38-2.18-0.56-5.08-0.57-7.57c0-0.51,3.92-2.01,5.31-1.4c6.8,2.99,14.03,0.95,20.91,2.31
	c1.32,0.26,3.06-0.02,3.9,0.74c1.08,0.97,2.1,2.81,1.94,4.13c-0.13,1.06-2.04,2.67-3.19,2.7c-4.82,0.11-9.65-0.46-14.48-0.45
	c-3.53,0.01-7.05,0.67-10.59,0.76c-1.11,0.03-2.24-0.88-3.36-1.35c1.97-0.29,3.94-0.58,5.91-0.87c0,0.08,0,0.16,0,0.24
	c3.38,0,6.76,0,10.29,0c0.2-0.88,0.43-1.85,0.87-3.79c0.67,2.17,1.04,3.37,1.71,5.52c0.89-1.78,1.38-2.76,1.57-3.14
	c1.04,0.73,2.05,1.82,3.28,2.19c1.14,0.34,2.51-0.09,3.78-0.19c0.99-0.08,1.97-0.17,2.96-0.26c0.02-0.29,0.05-0.58,0.07-0.86
	c-0.6-0.28-1.19-0.56-1.19-0.56c0.41-0.71,0.84-1.47,1.28-2.22c-2.02-0.4-4.03-0.81-6.05-1.21c-0.06,0.31-0.12,0.63-0.18,0.94
	c-1.05-0.59-2.08-1.63-3.17-1.7c-4.1-0.27-8.21-0.24-12.32-0.25c-0.56,0-1.11,0.51-1.7,0.6c-1.41,0.21-2.84,0.32-4.26,0.46
	c-0.01-0.35-0.03-0.71-0.04-1.06c0.92-0.15,1.84-0.31,2.77-0.46c-0.03-0.5-0.07-1-0.1-1.51c-1.66,0.23-3.85-0.13-4.86,0.8
	c-2.05,1.88,0.57,2.44,1.6,3.44c0.42,0.41,0.49,1.19,0.86,2.17c-1.43-0.12-2.39-0.19-3.5-0.28
	C1363.32,35.69,1363.48,36.29,1363.63,36.89z"/>
<path d="M1400.2,30.84c1.39-1.04,2.69-2.25,4.21-3.05c0.72-0.38,1.92-0.17,2.8,0.11c1.63,0.53,3.14,1.76,4.76,1.89
	c2.82,0.22,5.69-0.31,8.54-0.26c1.56,0.03,3.11,0.61,4.4,0.89c-1.12,2.6-1.86,4.56-2.82,6.4c-0.27,0.51-1.16,1.01-1.76,1
	c-4.74-0.08-9.48-0.33-14.22-0.4c-1.19-0.02-2.47,0.82-3.56,0.57c-1.34-0.3-2.52-1.31-3.78-2.01l-0.07,0.05
	c5.3,1.91,7.92-0.86,7.15-7.55c-0.34-0.14-0.67-0.28-1.01-0.41c-0.94,2.28-1.88,4.57-2.82,6.85c-0.32,0.02-0.64,0.05-0.95,0.07
	c-0.26-1.42-0.52-2.84-0.78-4.25C1400.3,30.73,1400.2,30.84,1400.2,30.84z M1410.72,31.12c-5.89-2.04-2.49,3.56-4.51,5.27
	c3.48,0.21,6.68,0.73,9.81,0.49c2.06-0.16,1.96-1.34-0.07-1.95c0.04-0.05,0.07-0.1,0.48-0.67c1.39,0.82,2.79,1.64,3.9,2.29
	c1.02-1.9,2.02-3.76,3.07-5.71c-2.94-1.16-6.15,2.02-9.33,0.1c-0.19-0.12-1.12,1.07-1.76,1.57c-0.54,0.43-1.17,0.74-1.76,1.11
	C1410.61,32.87,1410.65,32.12,1410.72,31.12z"/>
<path d="M1301.65,26.75c2.41,0.9,5.43,1.28,5.63,2.23c0.56,2.72,3.9,6.31-1.21,8.43c-0.88,0.37-1.43,1.54-3.04,3.39
	C1302.55,35.89,1302.17,32.02,1301.65,26.75z"/>
<path d="M1264.95,24.61c2.93,5.35,3.21,10.47,0.59,16.38C1262.26,35.53,1260.36,30.58,1264.95,24.61z"/>
<path d="M1294.38,32.2c-0.02,2.81-0.68,5.1-3.77,5.09c-2.64,0-3.31-2.24-2.9-4.22c0.36-1.77,1.59-4.68,2.59-4.74
	C1292.28,28.21,1294.72,29.36,1294.38,32.2z"/>
<path d="M1229.55,33.83c0.21-3.59,2.29-4.77,4.37-4.59c1.49,0.14,2.83,1.97,4.24,3.05c-1.67,1.62-3.2,3.45-5.13,4.67
	C1232.68,37.19,1230.75,34.94,1229.55,33.83z"/>
<path d="M1238.97,32.28c2.28-1.64,3.37-3.04,4.55-3.13c1.94-0.15,4.18,0.4,3.83,3.24c-0.28,2.27-1.73,3.76-4.03,3.28
	C1242.11,35.41,1241.14,34.03,1238.97,32.28z"/>
<path d="M1249.63,29.4c1.71,0,3.54-0.51,4.72,0.15c1.07,0.6,2.17,2.63,1.92,3.71c-0.26,1.12-2.05,2.14-3.38,2.58
	c-0.42,0.14-1.65-1.68-2.24-2.75C1250.16,32.21,1250.07,31.1,1249.63,29.4z"/>
<path d="M1222.09,32.83c1.26-1.52,2.14-2.58,3.02-3.64c0.9,1.04,2.68,2.29,2.5,3.07c-0.32,1.38-1.85,2.48-2.87,3.69
	C1223.98,35.08,1223.24,34.19,1222.09,32.83z"/>
<path d="M1218.17,36.05c-0.57-1.64-1.13-3.28-2.01-5.81c0.42-0.39,1.6-1.48,2.77-2.58c0.42,0.15,0.84,0.3,1.26,0.45
	c-0.26,2.6-0.52,5.21-0.78,7.81C1219,35.96,1218.59,36.01,1218.17,36.05z"/>
<path d="M1398.78,35.98c-0.67-2.45-1.41-4.88-1.91-7.36c-0.06-0.3,1.22-0.86,1.88-1.3c0.48,1.17,0.96,2.35,1.45,3.53
	c0,0,0.1-0.1,0.1-0.1c-0.37-0.72-0.74-1.43-1.59-3.06c0,3.44,0,5.9,0,8.36C1398.71,36.03,1398.78,35.98,1398.78,35.98z"/>
<path d="M30.65,103.79c-0.48-1.05-1.39-2.13-1.32-3.14c0.06-0.83,1.28-1.58,1.98-2.36c0.74,0.79,2.03,1.56,2.08,2.39
	c0.05,1.01-0.94,2.08-1.49,3.12C31.48,103.8,31.06,103.8,30.65,103.79z"/>
<path d="M165.18,98.75c0.74-2.4,1.06-4,1.76-5.42c0.26-0.53,1.57-1.02,2.13-0.81c1.07,0.39,2.49,1.13,2.77,2.03
	c0.44,1.43,0.51,3.34-0.11,4.64c-0.63,1.29-2.63,3.12-3.44,2.86C166.92,101.63,166.02,99.73,165.18,98.75z M168.98,93.8
	c-3.09,4.65-3.07,5.27,0.05,7.02C171.64,97.75,171.68,95.99,168.98,93.8z"/>
<path d="M153.88,97.09c-1.79,1.89-2.77,3.85-3.98,4.01c-2.44,0.32-2.59-2.01-2.26-3.72c0.32-1.71,1.23-3.32,1.89-4.97
	C150.76,93.74,152,95.07,153.88,97.09z M149.24,99.65c0.42,0,0.83,0,1.25-0.01c0-1.67,0-3.33,0-5c-0.42,0-0.83,0-1.25,0
	C149.24,96.31,149.24,97.98,149.24,99.65z"/>
<path d="M178.15,98.73c1.79-2.02,3.14-3.56,4.5-5.09c0.57,0.96,1.76,2.05,1.59,2.86c-0.43,2.06,0.75,5.32-2.78,5.58
	C180.63,102.14,179.66,100.31,178.15,98.73z"/>
<path d="M123.55,97.87c0.86,1.28,1.71,2.56,2.57,3.84c-1.09,0.52-2.18,1.04-3.26,1.56c-0.43-1.49-0.87-2.97-1.3-4.46
	C122.22,98.49,122.89,98.18,123.55,97.87z"/>
<path d="M1172.41,36.06c-1.95-2.41-0.7-5.2-0.14-8.55c2.34,0.76,4.42,1.45,6.5,2.13c-0.1,0.19-0.2,0.37-0.3,0.56
	c1.98-0.51,3.96-1.02,6.04-1.56c0.43,3,0.81,5.73,1.31,9.21c-1.31-1.15-2.06-1.81-2.81-2.48c-2.94,2.28-4.39,1.29-5.14-3.78
	C1175.91,33.19,1174.27,34.54,1172.41,36.06z"/>
<path d="M1191.68,22.28c0.29,4.06,0.58,8.12,0.95,13.25c-1.45-1.31-2.13-1.94-2.6-2.36c-1,0.62-1.94,1.19-2.87,1.77
	c-0.16-1.22-0.75-2.57-0.41-3.64c0.96-3.1,2.29-6.08,3.47-9.11C1190.71,22.22,1191.2,22.25,1191.68,22.28z"/>
<path d="M1170.42,26.32c-0.88,2.86-1.72,5.59-2.64,8.57c-1.88-2.61,0.91-7.65-5.19-7.61c0.28-0.32,0.56-0.64,0.84-0.96
	C1166.03,26.32,1168.62,26.32,1170.42,26.32z"/>
<path d="M1194.97,35.47c0-2.12-0.09-4.26,0.08-6.37c0.03-0.38,1.18-1.01,1.69-0.91c0.43,0.08,1.02,1.1,0.95,1.64
	c-0.23,1.87-0.71,3.71-1.09,5.56C1196.06,35.42,1195.51,35.45,1194.97,35.47z"/>
</svg>
