<?xml version="1.0" encoding="utf-8"?>
<!-- Generator: Adobe Illustrator 23.0.0, SVG Export Plug-In . SVG Version: 6.00 Build 0)  -->
<svg version="1.1" id="Слой_1" xmlns="http://www.w3.org/2000/svg" xmlns:xlink="http://www.w3.org/1999/xlink" x="0px" y="0px"
	 viewBox="0 0 1428 809.25" style="enable-background:new 0 0 1428 809.25;" xml:space="preserve">
<path d="M875.25,810c0-2.85,0-5.7,0-8.77c84.25,0,168.24,0,252.75,0c0,2.9,0,5.84,0,8.77C1043.75,810,959.5,810,875.25,810z"/>
<path d="M294.75,810c0-2.85,0-5.7,0-8.77c84.24,0,168.23,0,252.75,0c0,2.9,0,5.83,0,8.77C463.25,810,379,810,294.75,810z"/>
<path d="M585.75,810c0-2.85,0-5.7,0-8.78c83.89,0,167.68,0,252,0c0,2.9,0,5.84,0,8.78C753.75,810,669.75,810,585.75,810z"/>
<path d="M547.35,380.52c0,5.47,0,10.67,0,16.06c-84.2,0-168.24,0-252.44,0c0-5.39,0-10.59,0-16.06
	C378.98,380.52,463.01,380.52,547.35,380.52z M305.23,389.18c0.22-1.15,0.44-2.29,0.65-3.44c-0.24-0.13-0.48-0.26-0.72-0.39
	c-0.7,0.88-1.4,1.75-2.04,2.55c-0.51-1.17-0.99-2.28-1.46-3.38c-0.63,0.54-1.27,1.07-1.9,1.61c0.9,2.11,1.79,4.22,3.02,7.1
	c1.2-1.96,1.87-3.06,2.54-4.16c0.83,1.07,1.57,2.97,2.49,3.05c3.75,0.35,7.55,0.15,11.53,0.15c0.14-1.05,0.25-1.92,0.4-3.05
	c0.43,1.21,0.76,2.13,1.35,3.79c0.59-1.4,0.84-2,0.73-1.74c2.63,0.29,4.94,0.55,7.24,0.81c0.19-1,0.34-1.79,0.32-1.69
	c1.67,0.65,3.15,1.37,4.7,1.8c2.29,0.63,3.05-1.03,2.71-2.68c-0.2-0.97-1.67-2.3-2.65-2.38c-2.18-0.17-4.44,0.71-6.61,0.49
	c-1.91-0.19-3.72-1.28-6.15-2.19c-1.84,2.15-4.55,3.01-6.68,0.55c-2.17,0.51-3.93,1.48-5.37,1.13
	C307.07,386.57,306.18,387.65,305.23,389.18z M510.67,392.26c0,0,0,0.01,0,0.01c1.37,0,2.74-0.01,4.12,0
	c2.56,0.03,4.35-0.77,4.33-3.76c-0.02-3.01-2.13-3.63-4.44-3.78c-2.23-0.15-4.49,0.14-6.73,0.01c-2.72-0.15-4.06,0.51-4.09,3.68
	c-0.04,3.3,1.26,4.2,4.19,3.84C508.91,392.17,509.79,392.26,510.67,392.26z M496.03,387.99c0.55,1.12,0.72,2.07,1.28,2.47
	c1.07,0.76,2.34,1.29,3.6,1.7c0.17,0.05,1.2-1.31,1.07-1.83c-0.69-2.75-1.75-5.13-5.39-4.81c-2.55,0.22-5.14-0.1-7.7,0.06
	c-0.75,0.05-1.44,0.95-2.16,1.47c0.7,0.45,1.4,0.91,2.12,1.37c-0.73,1.08-1.45,2.15-2.42,3.59c1.15,0.14,1.84,0.27,2.53,0.29
	c0.7,0.02,1.39-0.09,2.09-0.14c-0.3-0.23-0.61-0.45-0.91-0.68c0.71-1.48,1.42-2.96,2.12-4.44c0.39,0.16,0.77,0.32,1.16,0.47
	c-0.28,1.5-0.56,3.01-0.84,4.51c0.25,0.06,0.5,0.11,0.74,0.17C494.08,390.99,494.85,389.81,496.03,387.99z M365.43,384.62
	c-3.12-0.34-3.89,1.26-3.88,4.03c0.01,2.89,1.15,3.96,4.02,3.98c3.17,0.02,4.1-1.55,4.06-4.37
	C369.6,385.35,368.17,384.21,365.43,384.62z M470.84,386.72c-3.6-3.4-6.88-3.33-9.75,0.07c4.21,5.97,7.57,7.52,9.69,4.31
	c-0.57-0.54-1.16-1.11-1.84-1.76C469.53,388.53,470.1,387.74,470.84,386.72z M386.98,385.54c-2.37-0.13-4.64-0.48-4.51,3.11
	c0.1,2.93,1.58,3.46,4.06,3.38c2.33-0.08,4.34,0.17,4.32-3.33C390.83,385.53,389.28,385.23,386.98,385.54z M358.98,392.72
	c-0.44-2.09-0.43-4.08-1.3-5.52c-0.76-1.25-2.46-2.4-3.88-2.59c-0.85-0.11-2.79,1.75-2.75,2.66c0.06,1.39,1.11,3.21,2.29,3.96
	C354.85,392.17,356.92,392.22,358.98,392.72z M349.73,391.21c-0.53-1.58-1.26-3.73-1.99-5.89c-0.34,0.04-0.69,0.08-1.03,0.13
	c-0.7,1.25-1.4,2.49-2.21,3.94c-0.24-1.54-0.42-2.71-0.6-3.89c-0.31,0.03-0.63,0.05-0.94,0.08c-0.37,1.68-0.74,3.36-1.11,5.04
	c-1-0.91-1.12-1.7-1.25-2.49c-0.14-0.85-0.29-1.69-0.56-3.27c-2.15,5.9-0.92,7.63,4.24,7.16
	C345.92,391.87,347.56,391.54,349.73,391.21z M531.88,390.51c2.9,0.7,5.07,1.46,7.28,1.64c0.89,0.07,2.73-1.17,2.69-1.71
	c-0.12-1.65-0.86-3.3-1.6-4.83c-0.1-0.21-1.7,0.03-2.33,0.46c-0.32,0.22-0.21,1.39,0.01,2.02c0.27,0.77,0.86,1.42,1.32,2.12
	c-0.28,0.16-0.56,0.33-0.84,0.49c-1.01-1.69-2.02-3.38-3.2-5.35C534.19,386.91,533.23,388.41,531.88,390.51z M485.35,383.9
	c-3.49,2.94-6.24,5.25-8.98,7.56c0.11,0.39,0.22,0.78,0.32,1.18c2.88-0.2,5.77-0.4,8.66-0.61
	C485.35,389.3,485.35,387.23,485.35,383.9z M459.32,389.36c-0.21-0.34-0.43-0.69-0.64-1.03c-1.75-0.7-3.46-1.56-5.27-2.05
	c-1.04-0.28-2.63-0.42-3.25,0.16c-0.7,0.65-1.1,2.42-0.69,3.24c0.38,0.75,1.98,1.1,3.08,1.2c1.1,0.1,2.26-0.28,3.38-0.54
	C457.07,390.07,458.19,389.69,459.32,389.36z M379.69,389.26c-0.62-1.45-1.11-2.58-1.54-3.59c-1.72,0-3.35,0-5.45,0
	c0.1,2.21,0.2,4.36,0.33,7.15C375.88,391.3,377.79,390.28,379.69,389.26z M532.99,387.17c-2.5-0.5-4.5-0.9-6.5-1.3
	c0,2.14,0,4.28,0,6.42c0.47,0.11,0.95,0.22,1.42,0.33C529.36,391.06,530.81,389.51,532.99,387.17z"/>
<path d="M1127.85,380.52c0,5.47,0,10.67,0,16.07c-84.11,0-168.06,0-252.3,0c0-5.21,0-10.5,0-16.07
	C959.48,380.52,1043.51,380.52,1127.85,380.52z M885.73,389.18c0.22-1.15,0.44-2.29,0.65-3.44c-0.24-0.13-0.48-0.26-0.72-0.39
	c-0.7,0.88-1.4,1.76-2.02,2.54c-0.51-1.17-0.99-2.27-1.48-3.37c-0.63,0.53-1.27,1.07-1.9,1.6c0.9,2.11,1.8,4.22,3.02,7.1
	c1.2-1.96,1.87-3.05,2.54-4.15c0.83,1.07,1.57,2.97,2.49,3.05c3.75,0.35,7.55,0.15,11.53,0.15c0.14-1.04,0.25-1.92,0.4-3.05
	c0.43,1.21,0.76,2.13,1.35,3.79c0.59-1.4,0.84-2,0.73-1.74c2.63,0.3,4.94,0.55,7.24,0.81c0.19-1,0.34-1.79,0.32-1.69
	c1.67,0.65,3.15,1.37,4.7,1.8c2.29,0.63,3.05-1.03,2.71-2.68c-0.2-0.97-1.67-2.3-2.65-2.38c-2.18-0.17-4.44,0.71-6.61,0.49
	c-1.91-0.19-3.72-1.28-6.15-2.19c-1.84,2.15-4.55,3.01-6.68,0.55c-2.17,0.51-3.93,1.48-5.37,1.13
	C887.57,386.57,886.68,387.65,885.73,389.18z M1091.45,392.26c0,0,0,0.01,0,0.01c1.37,0,2.74-0.01,4.12,0
	c2.27,0.03,3.78-0.75,4.06-3.29c0.3-2.78-1.52-3.95-3.61-4.17c-3.08-0.33-6.24-0.17-9.33,0.09c-0.78,0.06-1.93,1.16-2.13,1.97
	c-1.02,4.18,0.01,5.37,4.29,5.39C1089.71,392.27,1090.58,392.26,1091.45,392.26z M1076.49,388.06c0.58,0.98,0.79,1.81,1.33,2.18
	c1.16,0.79,2.46,1.38,3.76,1.91c0.09,0.04,1.06-1.19,0.93-1.65c-0.68-2.54-1.29-5.21-4.92-5.02c-2.7,0.14-5.42-0.09-8.12,0.08
	c-0.78,0.05-1.51,0.89-2.26,1.37c0.61,0.56,1.22,1.12,1.9,1.73c-0.53,0.81-1.24,1.9-2.22,3.39c1.9,0,3.27,0,4.64,0
	c-0.31-0.23-0.61-0.45-0.92-0.68c0.72-1.44,1.45-2.89,2.17-4.33c0.36,0.17,0.73,0.34,1.09,0.51c-0.29,1.47-0.59,2.95-0.88,4.42
	c0.22,0.1,0.45,0.19,0.67,0.29C1074.46,391.11,1075.24,389.94,1076.49,388.06z M946.67,392.53c3.01,0.48,3.44-1.77,3.45-4.39
	c0.02-3.02-1.74-3.6-4.39-3.6c-3.12,0-3.68,1.58-3.68,4.25C942.06,391.78,943.44,392.81,946.67,392.53z M1051.4,386.61
	c-4.06-3.26-6.74-3.17-9.82,0.06c3.86,5.96,6.17,7.09,10.41,4.04c-1.1-0.37-2.01-0.67-2.85-0.95
	C1050.16,388.33,1050.72,387.55,1051.4,386.61z M967.38,385.53c-2.27-0.08-4.42-0.48-4.4,2.91c0.01,3.13,1.58,3.72,4.23,3.58
	c2.17-0.11,4.09,0.19,4.15-3.12C971.41,385.56,969.79,385.19,967.38,385.53z M939.45,392.75c-0.47-2.17-0.51-4.34-1.44-6.02
	c-0.62-1.12-2.47-2.04-3.82-2.12c-0.89-0.05-2.59,1.52-2.63,2.43c-0.06,1.32,0.7,3.28,1.74,3.9
	C935.03,391.97,937.27,392.16,939.45,392.75z M1112.31,390.63c2.61,0.45,4.42,0.97,6.23,0.99c1.3,0.01,3.73-0.66,3.73-1.03
	c0.01-1.65-0.17-4.07-1.23-4.77c-1.99-1.31-2.96,0.55-3.34,2.46c-0.04,0.22-0.38,0.39-0.65,0.65c-0.25-1.26-0.46-2.34-0.85-4.32
	C1114.69,386.94,1113.72,388.44,1112.31,390.63z M920.73,385.63c-0.48,0.07-0.95,0.14-1.43,0.21c0.35,1.89,0.09,4.52,1.23,5.48
	c1.21,1.02,3.75,0.56,5.71,0.57c1.19,0,2.39-0.34,4-0.6c-0.54-1.67-1.23-3.77-2.29-7.02c-1.35,2.37-2.08,3.65-2.92,5.12
	c-0.23-1.43-0.43-2.63-0.63-3.83c-0.29-0.03-0.59-0.06-0.88-0.09c-0.37,1.71-0.75,3.43-1.12,5.14c-0.29,0.01-0.58,0.02-0.87,0.02
	C921.25,388.97,920.99,387.3,920.73,385.63z M1056.92,391.34c0.09,0.44,0.17,0.88,0.26,1.32c2.86-0.22,5.73-0.44,8.64-0.67
	c0-2.59,0-4.85,0-7.85C1062.47,386.86,1059.69,389.1,1056.92,391.34z M1039.81,389.38c-0.19-0.37-0.39-0.74-0.58-1.11
	c-1.67-0.6-3.31-1.32-5.03-1.75c-1.16-0.29-2.72-0.61-3.55-0.07c-0.7,0.46-1.13,2.84-0.73,3.14c0.99,0.76,2.5,0.96,3.83,1.13
	c0.86,0.11,1.78-0.19,2.66-0.39C1037.56,390.05,1038.68,389.7,1039.81,389.38z M958.7,385.67c-1.63,0-3.27,0-4.99,0
	c0,2.14,0,4.3,0,7.02c2.56-1.33,4.49-2.34,6.49-3.38C959.62,387.91,959.16,386.78,958.7,385.67z M1113.43,387.21
	c-2.4-0.54-4.37-0.98-6.35-1.42c0,2.16,0,4.31,0,6.47c0.42,0.14,0.85,0.28,1.27,0.42C1109.86,391.06,1111.36,389.44,1113.43,387.21z
	"/>
<path d="M585.75,396.52c0-5.08,0-10.04,0-15.27c83.91,0,167.68,0,251.73,0c0,4.91,0,9.96,0,15.27
	C753.67,396.52,669.79,396.52,585.75,396.52z M595.49,389.18c0.21-1.14,0.41-2.29,0.62-3.43c-0.24-0.13-0.48-0.25-0.72-0.38
	c-0.69,0.89-1.38,1.77-1.97,2.54c-0.82-0.86-1.59-1.67-2.36-2.47c-0.34,0.24-0.67,0.48-1.01,0.72c0.89,2.11,1.78,4.21,2.98,7.07
	c1.2-1.97,1.87-3.07,2.54-4.16c0.82,1.07,1.55,2.95,2.49,3.06c3.26,0.39,6.6,0.27,9.9,0.08c0.65-0.04,1.26-1.22,1.84-1.91
	c0.16-0.19,0.15-0.53,0.24-0.94c0.39,1.09,0.72,2.01,1.33,3.69c0.59-1.44,0.83-2.03,1.07-2.63c3.14,2.75,6.59,2.34,7.76-1.31
	c0.41,1.23,0.71,2.11,0.94,2.81c1.31,0.13,2.64,0.66,3.55,0.25c1.03-0.47,2.06-1.69,2.32-2.76c0.15-0.61-1.21-2.25-1.97-2.3
	c-3.83-0.24-7.69-0.11-11.56-0.11c-0.29-0.64-0.65-1.42-1.05-2.29c-3.48,2.95-5.84,3.06-7.51,1.32c-2.11,0.5-3.88,1.5-5.33,1.14
	C597.34,386.58,596.44,387.63,595.49,389.18z M801.01,392.26c0,0,0,0.01,0,0.01c1.37,0,2.74-0.01,4.11,0
	c2.38,0.02,4.11-0.68,4.24-3.46c0.14-2.94-1.82-3.84-4.14-4.05c-2.22-0.2-4.48,0.11-6.71,0.01c-2.72-0.12-4.38,0.28-4.41,3.77
	c-0.03,3.47,1.53,4.01,4.31,3.73C799.26,392.19,800.14,392.26,801.01,392.26z M786.37,387.98c0.51,1.15,0.63,2.14,1.19,2.53
	c1.09,0.76,2.39,1.25,3.66,1.64c0.15,0.05,1.14-1.36,0.99-1.88c-0.75-2.7-1.81-5.11-5.47-4.73c-2.41,0.25-4.89-0.14-7.32,0.05
	c-0.86,0.07-1.65,1-2.47,1.53c0.69,0.46,1.38,0.92,2.06,1.39c-0.71,1.07-1.43,2.13-2.37,3.54c1.23,0.12,1.94,0.24,2.65,0.24
	c0.68,0.01,1.36-0.1,2.04-0.15c-0.33-0.27-0.65-0.55-0.98-0.82c0.73-1.42,1.46-2.85,2.19-4.27c0.36,0.17,0.73,0.35,1.09,0.52
	c-0.3,1.48-0.6,2.95-0.9,4.43c0.21,0.09,0.42,0.18,0.63,0.28C784.24,391.04,785.09,389.82,786.37,387.98z M655.77,384.65
	c-3.07-0.3-3.97,1.18-3.96,3.98c0.01,2.86,1.1,3.97,3.97,4c3.12,0.03,4.12-1.47,4.09-4.3C659.84,385.45,658.47,384.27,655.77,384.65
	z M761.01,386.63c-3.56-3.19-6.37-3.16-9.67-0.06c3.56,5.98,6.49,7.36,9.69,4.49c-0.61-0.55-1.21-1.1-1.84-1.67
	C759.86,388.39,760.44,387.5,761.01,386.63z M676.67,391.98c2.45,0.07,4.33,0.2,4.43-3.07c0.1-3.38-1.62-3.55-4.12-3.44
	c-2.11,0.09-4.26-0.39-4.24,2.97C672.76,391.54,674.26,392.34,676.67,391.98z M649.2,392.75c-0.46-2.15-0.51-4.31-1.43-5.98
	c-0.62-1.12-2.5-2.13-3.79-2.11c-0.98,0.02-2.53,1.67-2.7,2.76c-0.17,1.1,0.76,2.97,1.75,3.51
	C644.82,391.92,647.01,392.16,649.2,392.75z M630.47,385.65c-0.39,0.01-0.77,0.02-1.16,0.03c0.14,1.78-0.13,3.75,0.58,5.26
	c0.37,0.79,2.46,1.04,3.78,1.06c1.99,0.03,4-0.36,6.41-0.61c-0.67-1.89-1.41-3.96-2.5-6.99c-1.32,2.31-2.03,3.56-2.84,4.99
	c-0.25-1.51-0.44-2.69-0.64-3.87c-0.31,0.03-0.63,0.06-0.94,0.09c-0.33,1.67-0.66,3.35-1,5.02c-0.3,0-0.61,0.01-0.91,0.01
	C631,388.97,630.74,387.31,630.47,385.65z M775.56,391.99c0-2.43,0-4.72,0-7.79c-3.39,2.76-6.2,5.05-9.01,7.34
	c0.13,0.4,0.26,0.81,0.4,1.21C769.76,392.5,772.59,392.25,775.56,391.99z M831.11,392.43c0.48-2.1,0.96-3.24,0.94-4.37
	c-0.02-0.82-0.49-2.04-1.12-2.34c-0.72-0.35-1.92-0.07-2.74,0.3c-0.32,0.15-0.19,1.3-0.26,1.99c0.62-0.06,1.24-0.11,2.45-0.23
	c-1.04,0.9-1.71,1.49-2.39,2.07c-0.72-1.38-1.44-2.75-2.43-4.64c-1.07,1.67-2.07,3.22-3.46,5.37
	C825.7,391.32,828.72,391.94,831.11,392.43z M663.37,392.71c2.62-1.33,4.61-2.35,6.6-3.36c-0.67-1.53-1.17-2.65-1.61-3.65
	c-1.7,0-3.33,0-4.99,0C663.37,387.85,663.37,389.93,663.37,392.71z M749.23,388.38c-1.96-0.74-3.68-1.54-5.5-2.03
	c-1.05-0.28-2.61-0.5-3.25,0.06c-0.72,0.62-1.23,2.58-0.78,3.16c0.63,0.82,2.19,1.11,3.39,1.25c0.98,0.11,2.22-0.79,2.99-0.45
	C748.74,391.55,748.99,390,749.23,388.38z M816.78,392.12c0.46,0.18,0.92,0.35,1.37,0.53c1.48-1.63,2.97-3.26,4.98-5.46
	c-2.39-0.5-4.37-0.92-6.35-1.33C816.78,387.94,816.78,390.03,816.78,392.12z"/>
<path d="M2.12,353.41c475.1,0.48,950.2,0.96,1425.29,1.44c0,0.7,0,1.41,0,2.11c-475.12-0.72-950.23-1.43-1425.35-2.15
	C2.09,354.35,2.1,353.88,2.12,353.41z"/>
<path d="M2.32,36.05c1.31,0,2.63,0,3.94,0c14.49,0,28.98-0.17,43.47,0.11c4.07,0.08,5.39-1.25,4.96-5.03
	c-0.11-0.98-0.02-1.98-0.58-3.3c-1.13,1.98-2.26,3.97-3.77,6.61c-1.19-2.21-2.08-3.88-3.24-6.06c-0.43,2.61-0.76,4.63-1.09,6.66
	c-0.19-0.05-0.39-0.1-0.58-0.15c0-3.56,0-7.11,0-10.67c0.44-0.12,0.88-0.25,1.32-0.37c1.18,2.43,2.36,4.85,3.7,7.62
	c1.72-2.86,3.26-5.43,4.8-8c0.39,0.08,0.79,0.16,1.18,0.24c-0.17,2.47-0.38,4.94-0.5,7.41c-0.19,3.89,0.77,4.95,4.51,4.63
	c-2.17-3.52-1.59-7.06,0.47-10.11c0.85-1.26,3.04-1.61,4.62-2.38c0.58,1.33,1.16,2.67,1.74,4c-0.34,0.13-0.67,0.25-1.01,0.38
	c-0.4-1.09-0.8-2.19-1.26-3.45c-3.84,1.15-4.18,4.3-4.37,7.17c-0.07,1.14,1.14,3.08,2.18,3.44c2.4,0.82,5.06,1.2,7.61,1.22
	c14,0.12,28,0.07,42,0.08c436.21,0.24,872.42,0.48,1308.64,0.71c1.81,0,3.62,0,5.44,0c0,0.31-0.01,0.62-0.01,0.92
	c-474.74,0-949.48,0-1424.22,0C2.3,37.18,2.31,36.62,2.32,36.05z"/>
<path d="M714.4,275.49c-28.11,0-56.21,0-84.32-0.01c-1.62,0-3.26,0.02-4.86-0.22c-2.94-0.45-4.77-2.1-4.79-5.26
	c-0.17-23.86-0.37-47.72-0.46-71.57c-0.02-4.33,3.01-7.77,8-9.2c2.24-0.64,4.67-0.82,7.02-0.82c53.46,0.02,106.93,0.09,160.39,0.15
	c1.5,0,3,0.05,4.5-0.04c6.69-0.41,10.27,2.92,10.16,9.69c-0.41,23.61-0.92,47.21-1.25,70.82c-0.05,3.58-1.81,5.31-4.86,6.08
	c-1.55,0.39-3.22,0.39-4.83,0.39c-28.23,0.02-56.46,0.02-84.69,0.02C714.4,275.5,714.4,275.49,714.4,275.49z M713.98,273.54
	c0,0.01,0,0.01,0,0.02c27.48,0,54.96,0,82.45-0.01c1.62,0,3.26,0.03,4.87-0.14c4.35-0.45,5.35-1.5,5.45-5.9
	c0.27-12.24,0.49-24.48,0.69-36.72c0.17-10.87,0.36-21.73,0.39-32.6c0.02-5.96-2.13-7.91-7.89-7.64c-0.62,0.03-1.25,0.01-1.87,0.01
	c-54.09-0.02-108.18-0.05-162.27-0.07c-1.5,0-3.01-0.08-4.49,0.06c-6.03,0.57-9.43,4.3-9.38,10.34c0.17,22.11,0.35,44.22,0.56,66.33
	c0.05,5.2,0.93,6.05,6.07,6.26c1.37,0.05,2.75,0.05,4.12,0.05C659.77,273.54,686.87,273.54,713.98,273.54z"/>
<path d="M1002.62,517.85c0,24.11-0.07,48.22,0.07,72.33c0.02,3.6-1.07,4.75-4.66,4.72c-34.35-0.23-68.7-0.35-103.05-0.41
	c-2.54,0-3.55-0.71-3.57-3.37c-0.28-48.97-0.61-97.93-0.99-146.9c-0.02-3.14,1.25-4.1,4.25-4.08c34.6,0.22,69.19,0.4,103.79,0.48
	c3.52,0.01,3.74,1.89,3.74,4.53c0.05,22.36,0.15,44.72,0.23,67.08c0.01,1.87,0,3.75,0,5.62
	C1002.5,517.85,1002.56,517.85,1002.62,517.85z M1000.92,593.09c0-2.14,0-3.62,0-5.09c-0.18-46.99-0.41-93.98-0.44-140.97
	c0-3.93-1.19-4.73-4.87-4.73c-33.11-0.04-66.22-0.22-99.33-0.54c-3.7-0.04-4.27,1.34-4.24,4.55c0.42,47.36,0.79,94.72,1.02,142.09
	c0.02,3.62,1.08,4.57,4.64,4.56c32.99-0.06,65.98,0.07,98.98,0.14C997.89,593.09,999.11,593.09,1000.92,593.09z"/>
<path d="M1003.73,440.39c1.3-0.08,2.61-0.22,3.91-0.22c35.5-0.01,70.99,0.03,106.49-0.08c3.39-0.01,4.53,0.91,4.54,4.4
	c0.06,48.49,0.22,96.99,0.49,145.48c0.02,3.67-1.14,4.59-4.68,4.61c-35.37,0.15-70.74,0.46-106.11,0.72
	c-1.54,0.01-3.07-0.15-4.61-0.23c-0.01-0.35-0.02-0.7-0.03-1.05c1.31-0.13,2.62-0.35,3.94-0.36c34.99-0.27,69.99-0.57,104.98-0.7
	c3.61-0.01,4.91-0.69,4.88-4.69c-0.33-47.37-0.48-94.74-0.54-142.1c0-3.43-0.94-4.41-4.4-4.4c-34.74,0.12-69.49,0.07-104.24,0.07
	c-1.54,0-3.07,0-4.61,0C1003.73,441.35,1003.73,440.87,1003.73,440.39z"/>
<path d="M414.87,536.74c2.18-8.55,1.05-16.11,0.02-23.74c-1.42,0.77-2.66,1.45-3.9,2.12c-0.79-1.64-2.16-3.25-2.27-4.94
	c-0.3-4.6-0.24-9.24,0.01-13.84c0.19-3.44,2.79-5.95,6.21-5.66c5.17,0.43,10.35,1.22,15.39,2.41c1.22,0.29,2.76,2.73,2.73,4.16
	c-0.08,4.33-0.67,8.69-1.48,12.96c-0.25,1.31-1.82,2.37-2.78,3.55c-1-0.94-2-1.88-3.3-3.1c-0.33,4.41,0.64,8.76,3.47,11.83
	c3.2,3.46,7.02,6.65,12.57,6.35c4.29-0.24,4.99,1.03,4.35,5.18c-0.59,3.81-1.02,7.65-1.3,11.49c-0.27,3.73-1.42,6.58-5.6,7.2
	c-5.65,0.84-11.3,2.38-16.94,2.32c-4-0.04-8.43-1.49-11.84-3.63c-4.03-2.53-7.36-6.31-10.65-9.87c-2.72-2.95-1.76-4.81,1.62-6.99
	C406.16,531.31,410.36,532.59,414.87,536.74z M423.78,502.63c-7.84,1.75-8.38,0.88-7.12,9.05c0.42,2.71,1.38,5.4,1.38,8.09
	c-0.02,5.18-0.33,10.39-0.97,15.53c-0.36,2.88-2.5,3.07-4.8,1.71c-5.76-3.41-7.13-3.27-13.1,1.79c2.54,2.54,5.15,4.94,7.52,7.55
	c4.36,4.8,9.72,7.66,16.16,7.09c5.52-0.49,10.95-2.05,16.44-3.03c2.59-0.46,3.44-2.08,3.67-4.45c0.4-4.2,0.87-8.4,1.4-12.59
	c0.26-2.01,0.03-3-2.5-2.77c-2.27,0.21-5.03,0.33-6.87-0.74c-8.76-5.05-12.56-12.73-10.98-22.91
	C424.23,505.59,423.88,504.12,423.78,502.63z M410.81,509.58c0.44,0.03,0.88,0.06,1.31,0.1c0.29-1.17,0.76-2.33,0.85-3.52
	c0.41-5.94,3.77-8.38,8.87-9.5c5.4-1.18,7.45,0.81,6.79,6.31c-0.29,2.41-0.05,4.88-0.05,7.33c1.61-4.09,2.4-8.22,3.03-12.37
	c0.34-2.26-0.89-3.53-3.11-3.83c-4.56-0.62-9.11-1.53-13.68-1.65c-1.31-0.04-3.69,2.1-3.83,3.43
	C410.51,500.4,410.81,505.01,410.81,509.58z M425.87,503.29c0.36-0.22,0.73-0.44,1.09-0.65c-0.61-1.29-0.98-3.48-1.86-3.72
	c-2.96-0.77-5.94-0.3-8.56,2.18C419.92,502.01,423.7,498.49,425.87,503.29z"/>
<path d="M314.52,607.1c1.24-0.15,2.49-0.43,3.73-0.43c30.73-0.06,61.46-0.1,92.19-0.09c2.34,0,4.07-0.12,5.5-2.62
	c2.17-3.79,10.21-3.11,13.14,0.6c0.8,1.02,2.4,1.94,3.66,1.99c5.36,0.2,10.74,0.05,16.11,0.03c1.33,0,2.66,0,3.99,0
	c0.06,0.42,0.12,0.83,0.17,1.25c-1.13,0.22-2.26,0.61-3.4,0.62c-5.87,0.05-11.75-0.15-17.61,0.11c-1.57,0.07-3.51,1.05-4.54,2.25
	c-4.03,4.7-10.84,3.98-13.49-2.2c-32.95,0-66.16,0-99.36,0C314.58,608.1,314.55,607.6,314.52,607.1z"/>
<path d="M296.09,435.79c82.83,0,165.67,0,248.5,0c0,0.33,0,0.66,0,1c-82.83,0-165.66,0-248.5,0
	C296.1,436.45,296.1,436.12,296.09,435.79z"/>
<ellipse cx="711.25" cy="461.8" rx="157.7" ry="0.49"/>
<path d="M890.5,678.85c74.07,0,148.15,0,222.22,0c0,0.2,0,0.4,0,0.6c-74.07,0-148.13,0-222.2,0
	C890.52,679.25,890.51,679.05,890.5,678.85z"/>
<path d="M972.77,753.55c10.42-0.52,20.46-1.41,30.49-1.4c8.58,0.01,17.16,1.08,25.74,1.62c3.08,0.19,4.14,1.48,3.42,4.62
	c-1.26,5.47-1.86,11.11-3.47,16.46c-1.03,3.43-3.09,6.66-5.22,9.6c-2.1,2.91-5.02,5.2-7.29,8c-3.53,4.33-7.96,5.66-13.32,4.87
	c-7.6-1.11-14.07-4.89-20.57-8.58c-0.93-0.53-1.84-1.42-2.34-2.36C974.87,776.29,972.13,765.59,972.77,753.55z M1031.08,756.16
	c-8.24-0.87-16.14-2.38-24.03-2.35c-9.9,0.03-19.81,1.25-29.69,2.18c-0.92,0.09-2.34,1.77-2.4,2.79c-0.6,9.56,3.39,17.98,6.95,26.49
	c0.27,0.64,0.89,1.32,1.52,1.6c6.59,2.89,13.1,6.06,19.88,8.42c4.46,1.56,8.45-0.22,11.56-4.03c2.67-3.27,5.73-6.22,8.56-9.37
	c0.99-1.1,2.28-2.25,2.61-3.58C1027.86,770.98,1029.42,763.59,1031.08,756.16z"/>
<path d="M718.27,534.47c6.24,0,12.47-0.02,18.71,0.01c2.35,0.01,4.08,0.53,3.82,3.64c-0.45,5.43-0.85,10.89-0.72,16.32
	c0.19,8.51-4.64,14.18-10.23,19.53c-0.55,0.53-1.58,0.76-2.4,0.77c-9.96,0.21-19.93,0.29-29.88,0.57c-3.14,0.09-4.82-1.37-6.64-3.81
	c-7.29-9.76-7.62-21.07-7.87-32.46c-0.07-2.95,1.93-3.45,4.21-3.56c10.33-0.5,20.66-0.99,30.98-1.48
	C718.26,534.17,718.26,534.32,718.27,534.47z M738.03,536.38c-0.25-0.06-0.84-0.33-1.44-0.32c-16.21,0.26-32.46-1.12-48.61,1.48
	c-2.38,0.38-2.96,1.64-2.74,3.56c0.79,6.8,1.05,13.74,2.69,20.34c2.48,9.99,6.76,12.41,16.62,11.82c7.2-0.43,14.44-0.24,21.66-0.46
	c1.12-0.03,2.47-0.5,3.28-1.24c5.34-4.89,9.02-10.53,8.59-18.27C737.78,547.74,738.03,542.16,738.03,536.38z"/>
<path d="M505.65,702.64c3.62,0,7.24,0.04,10.86-0.02c3.22-0.05,4.95,1.26,4.79,4.67c-0.29,5.98-0.48,11.96-0.77,17.94
	c-0.13,2.63-1.82,3.75-4.26,3.71c-7.23-0.12-14.47-0.2-21.69-0.62c-1.21-0.07-3.22-1.61-3.33-2.64c-0.71-6.41-1.11-12.86-1.34-19.31
	c-0.09-2.48,1.53-3.78,4.15-3.74C497.91,702.69,501.79,702.65,505.65,702.64z M505.88,704.82c0,0,0-0.01,0-0.01
	c-3.61,0-7.24-0.18-10.83,0.11c-1.09,0.09-3,1.45-2.98,2.19c0.13,5.69,0.55,11.39,1.13,17.06c0.08,0.78,1.57,1.97,2.45,2.01
	c6.59,0.32,13.19,0.49,19.78,0.45c0.95-0.01,2.66-1.29,2.73-2.1c0.51-5.57,0.66-11.17,0.97-16.76c0.13-2.32-1.01-3.03-3.17-2.97
	C512.6,704.9,509.24,704.82,505.88,704.82z"/>
<path d="M707.98,501.17c0.19,3.35,0.38,6.56,0.55,9.76c0.24,4.6,0.34,9.21,0.75,13.8c0.28,3.12-1.01,5.05-3.96,5.18
	c-6.48,0.3-12.98,0.35-19.46,0.18c-0.89-0.02-2.49-1.82-2.48-2.79c0.04-6.48,1.73-12.32,7.41-16.35c4.93-3.5,8.76-8.72,15.32-9.62
	C706.59,501.28,707.06,501.25,707.98,501.17z M695.55,528.14c0-0.04,0-0.09,0-0.13c2.87,0,5.79,0.29,8.6-0.14
	c1.16-0.17,2.96-1.87,2.97-2.88c0.03-5.85-0.29-11.71-0.7-17.56c-0.25-3.57-1.65-4.47-4.58-2.39c-4.65,3.29-9.31,6.8-13.09,11.01
	c-2.03,2.26-2.41,6.12-3.1,9.36c-0.15,0.71,1.46,2.45,2.44,2.6C690.52,528.4,693.06,528.14,695.55,528.14z"/>
<path d="M998,733.66c0,3.37,0.02,6.73,0,10.1c-0.03,3.97-0.97,4.81-4.93,4.51c-6.08-0.47-12.18-0.76-18.23-1.49
	c-1.7-0.21-4.35-1.42-4.64-2.64c-0.86-3.55-0.49-7.37,2.8-9.84c4.57-3.44,9.3-6.66,14.04-9.86c2.37-1.6,4.85-3.07,7.4-4.36
	c2.32-1.18,3.77-0.72,3.63,2.38c-0.16,3.73-0.04,7.48-0.04,11.22C998.01,733.66,998,733.66,998,733.66z M995.81,722.33
	c-1.15,0.22-1.7,0.18-2.07,0.41c-6.52,4.16-13.24,8.04-19.37,12.71c-1.83,1.39-2.05,4.97-2.8,7.61c-0.11,0.38,0.96,1.54,1.55,1.59
	c6.7,0.59,13.42,1.13,20.14,1.42c0.81,0.03,2.41-1.49,2.43-2.32C995.9,736.79,995.81,729.81,995.81,722.33z"/>
<path d="M1033.91,749.54c-3.27,0-5.34,0.07-7.4-0.01c-6.1-0.24-12.2-0.73-18.31-0.76c-3.09-0.02-4.28-1.01-4.11-4.11
	c0.39-7.47,0.57-14.94,0.96-22.41c0.06-1.11,0.8-2.18,1.35-3.59c5.8,4.85,14.48,4.11,18.3,10.89
	C1028.12,735.63,1030.6,742.25,1033.91,749.54z M1006.47,723.1c-0.16,6.52-0.39,13.06-0.46,19.61c-0.03,2.89,1.52,4,4.51,4.06
	c5.21,0.11,10.4,0.7,15.6,1.05c1.38,0.09,2.78,0.01,4.02,0.01C1027.18,735.03,1022.36,724.44,1006.47,723.1z"/>
<path d="M713.78,500.54c7.98,1.9,14.54,5.65,19.26,11.42c3.36,4.11,5.12,9.58,7.32,14.57c0.9,2.05,0.19,3.53-2.59,3.53
	c-6.19,0.01-12.39,0.15-18.57,0.46c-3.2,0.16-5.29-0.98-5.36-4.18C713.67,517.91,713.78,509.47,713.78,500.54z M715.61,503.76
	c0,7.43-0.07,14.5,0.04,21.56c0.04,2.47,1.62,3.38,4.06,3.17c6.03-0.52,12.07-0.94,18.14-1.4
	C737.81,518.04,726.5,505.52,715.61,503.76z"/>
<path d="M405.33,712.42c-0.24,6.02-1.81,10.69-5.42,14.41c-1.09,1.13-2.94,2.02-4.49,2.11c-11.35,0.65-19.53-10.1-15.94-20.89
	c1.39-4.19,5.2-5.62,9.01-6.35c4.41-0.85,8.67,0.06,12.42,2.76C403.93,706.64,406.03,709.25,405.33,712.42z M403.18,713.84
	c0.02-5.63-4.54-10.21-10.61-10.01c-8.09,0.27-11.58,2.28-11.73,10.07c-0.12,6.66,6.49,12.73,13.93,12.76
	C398.95,726.68,403.16,720.25,403.18,713.84z"/>
<path d="M617.37,441.06c0.52,1.44,1.04,2.87,1.7,4.72c0.69-1.03,1.23-1.83,2.02-3.01c1.19,1.01,2.34,1.98,2.85,2.41
	c1.59,0,2.72,0,4.07,0c0.13-1.38,0.24-2.63,0.36-3.87c0.22-0.02,0.44-0.03,0.66-0.05c0.11,2.27,0.22,4.55,0.32,6.82
	c0.46,0.12,0.91,0.25,1.37,0.37c0.95-2.33,1.9-4.66,2.79-6.85c0.09,0.72,0.2,1.66,0.42,3.46c1.6-1.36,2.83-2.42,3.98-3.4
	c0.23,0.91,0.53,2.06,0.82,3.21c0.29,0.01,0.58,0.03,0.87,0.04c0.13-1.22,0.31-2.44,0.37-3.66c0.06-1.32,0.01-2.65,0.72-4.03
	c0.1,1.82,0.2,3.64,0.3,5.41c4.29,1.08,5.87,3.35,5.39,8.59c-0.78-1.76-1.19-2.83-1.72-3.83c-0.5-0.93-1.13-1.78-1.71-2.66
	c-0.41,0.01-0.82,0.03-1.24,0.04c-0.4,2.13-0.79,4.26-1.18,6.3c-1.38-1.61-2.83-3.3-4.63-5.41c-0.63,0.54-1.56,1.2-2.32,2.02
	c-3.72,4.02-3.93,4.03-7-0.28c-0.54,2.09-1.04,4.05-1.54,6c-0.46,0-0.93-0.01-1.39-0.01c-0.51-2.19-1.03-4.38-1.56-6.64
	c-0.76,1.1-1.41,2.46-2.47,3.32c-0.38,0.31-2.46-0.47-2.56-0.98c-0.5-2.58-0.59-5.24-0.83-7.87
	C616.62,441.17,616.99,441.12,617.37,441.06z"/>
<path d="M516.69,100.61c-2.21,2.2,1.71,6.53-3.53,7.54c0-5.91,0-11.46,0-17.4c2.59,0,5.06-0.12,7.52,0.03
	c2.52,0.16,5.16,0.46,5.77,3.64c0.6,3.06-1.25,4.59-3.81,5.57c1.69,2.43,3.36,4.85,5.09,7.34c-3.36,0.85-3.25,0.78-5.35-2.12
	C520.87,103.12,520.29,99.48,516.69,100.61z M515.98,93.78c0.06,1.42,0.11,2.45,0.17,3.7c1.96,0,3.69,0.18,5.35-0.08
	c0.72-0.11,1.3-1.11,1.95-1.71c-0.61-0.64-1.14-1.71-1.83-1.82C519.94,93.6,518.21,93.78,515.98,93.78z"/>
<path d="M607.76,108.03c0-6.02,0-11.45,0-17.21c4.52,0.21,9.41-1.57,12.5,2.97c2.33,3.42,2.29,7.52,0.08,11
	C617.34,109.52,612.38,107.62,607.76,108.03z M610.81,94.03c0,3.81,0,7.32,0,10.81c6.46,0.4,7.89-0.64,7.84-5.51
	C618.6,94.53,616.91,93.36,610.81,94.03z"/>
<path d="M625.09,598.07c-12.27-0.54-12.27-0.54-13.7-12.81c-0.8-6.86,1.03-9.31,7.96-9.19c4.42,0.07,8.89,0.99,13.21,2.07
	c1.3,0.33,2.94,2.43,3.03,3.81c0.25,3.82-0.31,7.69-0.42,11.54c-0.1,3.78-2.13,4.96-5.6,4.6
	C628.09,597.95,626.58,598.07,625.09,598.07z M625.27,596.23c0.85,0.05,2.23,0.04,3.59,0.24c3.07,0.44,4.75-0.62,4.81-3.92
	c0.06-3.12,0.22-6.24,0.48-9.35c0.19-2.29-0.74-3.66-2.98-3.9c-3.84-0.41-7.69-0.68-11.54-0.97c-6.32-0.48-7.26,0.5-6.61,6.85
	C614.12,595.97,614.12,595.97,625.27,596.23z"/>
<path d="M267.08,602.57c-0.74,2.91-1.81,8.16-3.43,13.23c-1.28,4.02-7.24,5.45-11.96,3.25c-5.18-2.42-7.26-8.38-4.74-13.56
	c0.71-1.46,1.59-2.88,1.98-4.43c1.43-5.7,6.28-7.06,10.87-8.44C263.74,591.45,267.25,595.31,267.08,602.57z M256.58,619
	c1.8-1.08,4.74-1.81,5.18-3.29c1.67-5.55,2.9-11.31,3.55-17.07c0.4-3.51-3.25-5.04-6.6-3.84c-5.69,2.03-8.53,6.26-10.37,11.65
	C246.26,612.52,249.8,618.01,256.58,619z"/>
<path d="M560.04,108.31c-0.62-0.76-1.66-1.45-1.78-2.28c-0.26-1.83,0.17-3.76-0.14-5.58c-0.18-1.05-1.23-1.96-1.89-2.93
	c-0.83,0.92-2.21,1.75-2.36,2.77c-0.35,2.41-0.11,4.91-0.11,7.37c-0.39,0.21-0.78,0.43-1.17,0.64c-0.63-0.74-1.72-1.43-1.82-2.24
	c-0.25-2.09,0.11-4.24-0.14-6.33c-0.09-0.8-1.21-2.11-1.76-2.07c-0.83,0.07-2.13,1.04-2.26,1.79c-0.35,2.06,0,4.23-0.31,6.3
	c-0.14,0.92-1.18,1.72-1.8,2.57c-0.32-0.21-0.64-0.41-0.96-0.62c0-4.06,0-8.12,0-12.46c3.37,0.5,6.52,1.04,9.69,1.38
	c0.76,0.08,1.6-0.48,2.39-0.78c3.06-1.17,5.22,0.07,5.41,3.33c0.16,2.72,0.03,5.47,0.03,8.2C560.72,107.69,560.38,108,560.04,108.31
	z"/>
<path d="M338.1,703.74c-0.88,4.63-6.03,5.96-7.91,10.62c8.2,0,15.89,0,23.58,0c0,0.53,0,1.07,0,1.6c-7.78,0-15.56,0-23.35,0
	c-0.24,0.5-0.47,0.99-0.71,1.49c1.95,2.06,3.91,4.1,5.84,6.19c0.61,0.66,1.21,1.39,1.59,2.19c0.09,0.18-0.89,1.22-1.15,1.14
	c-0.86-0.28-1.78-0.74-2.39-1.39c-1.18-1.27-2.11-2.78-3.26-4.09c-4.18-4.79-4.13-7.39,0.31-11.8c2.03-2.01,4.06-4.01,6.11-5.99
	C336.89,703.57,337.24,703.69,338.1,703.74z"/>
<path d="M616.66,618.31c1.88-1.51,3.43-2.93,5.14-4.1c2.28-1.57,4.61-2.31,6.93,0.18c0.52,0.56,1.62,0.95,2.39,0.86
	c4.76-0.54,9.54-1.04,14.23-1.98c2.42-0.48,3.98-0.65,4.93,2.14c0.62,1.83,1.94,3.43,2.95,5.14c0.53-0.44,1.06-0.88,1.59-1.32
	c0.59-0.86,1.18-1.72,1.78-2.59c0.34,0.17,0.67,0.34,1.01,0.51c-0.72,1.22-1.14,2.98-2.21,3.54c-2.31,1.22-5.42-1.31-7.47-5.61
	c-5.32,0.76-10.61,1.58-15.92,2.24c-1.26,0.16-3.27,0.26-3.76-0.44c-2.69-3.82-4.85-1.36-7.06,0.32c-1.37,1.04-2.57,2.3-4.48,4.04
	c-1.66-2.47-3.19-4.76-4.72-7.04c0.36-0.27,0.72-0.53,1.08-0.8C614.15,614.88,615.23,616.36,616.66,618.31z"/>
<path d="M993.17,420.08c-0.06-0.56-0.19-1.76-0.45-4.12c-0.91,1.72-1.31,2.5-1.74,3.27c-0.39,0.71-0.81,1.42-1.9,1.99
	c0-2.11,0-4.21,0-6.27c2.08,0,4.09,0,6.56,0c0.29-0.49,0.81-1.39,1.33-2.28c0.27,0,0.54,0,0.81,0c0.24,2.01,0.48,4.02,0.7,5.89
	c1.37-1.37,2.52-3.33,4.17-3.92c1.53-0.55,3.76-0.01,5.35,0.75c1.1,0.52,2.56,2.77,2.24,3.3c-0.74,1.26-2.37,2.51-3.78,2.68
	c-0.8,0.1-1.95-1.86-2.76-3.01c-0.27-0.38,0.02-1.14-0.61-2.04c-0.59,0.93-1.55,1.81-1.7,2.81c-0.42,2.67-2.27,3.66-4.64,2.3
	C995.84,420.89,994.76,420.66,993.17,420.08z"/>
<path d="M700.26,616.72c-3.07,1.36-6.07,3.44-9.25,3.77c-1.47,0.15-3.29-3.12-4.95-4.84c0.41-0.35,0.82-0.7,1.23-1.05
	c0.67,0.89,1.34,1.79,2.03,2.68c2.02,2.6,4,2.68,6.1,0.24c4.29-4.98,4.78-4.95,9.04,0.09c0.46,0.55,1.4,0.84,2.17,0.97
	c4.73,0.8,7.73-2.67,12.35-4.46c3.16,0.73,6.33,5.48,11.71,2.64c1.59-0.84,4.36,0.56,6.59,0.93c-0.05,0.42-0.1,0.83-0.15,1.25
	c-0.54,0.08-1.26,0.43-1.58,0.21c-2.65-1.92-5.11-0.69-7.8-0.01c-1.69,0.43-4.72,0.32-5.36-0.68c-2.1-3.32-4.33-1.27-6.47-0.78
	c-1.16,0.27-2.18,1.15-3.3,1.66c-4.88,2.21-7.25,1.69-10.99-2.31c-0.49-0.52-1.09-0.94-1.63-1.4
	C700.09,615.98,700.18,616.35,700.26,616.72z"/>
<path d="M722.29,96.38c-1.02-0.43-2.02-0.93-3.07-1.26c-1.56-0.49-3.42-1.54-4.67-1.07c-1.26,0.47-2.49,2.41-2.74,3.88
	c-0.74,4.24,0.7,6.98,3.47,6.96c1.38-0.01,2.76-1.09,4.12-1.74c0.99-0.47,1.94-1.03,3.6-1.92c-1.46,4.97-4,7.01-7.35,6.74
	c-4.12-0.33-6.91-3.28-7.26-7.68c-0.37-4.71,1.71-7.92,5.92-9.14C717.95,90.08,720.68,91.46,722.29,96.38z"/>
<path d="M366.7,409.22c-2.7,4.49-5.4,8.98-8.79,14.61c-1.83-3.92-3.28-7.03-4.76-10.2c-2.36-0.38-3.46,0.39-3.12,3
	c0.36,2.7,0.44,5.43,0.64,8.15c-0.63,0.05-1.26,0.1-1.88,0.15c-0.3-3.55-0.6-7.1-0.91-10.65c-1.15-0.62-2.3-1.24-3.45-1.87
	c0.04-0.23,0.07-0.47,0.11-0.7c3.22-0.28,6.44-0.71,9.66-0.74c0.65-0.01,1.43,1.41,1.94,2.29c0.52,0.9,0.77,1.96,1.41,3.66
	c0.91-1.7,1.45-2.72,1.99-3.73c0.17,0.05,0.34,0.1,0.52,0.15c-0.42,1.57-0.83,3.13-1.47,5.53c2.67-3.87,4.88-7.09,7.1-10.31
	C366.02,408.79,366.36,409,366.7,409.22z"/>
<path d="M447.81,724.8c2.57-2.28,5.14-4.57,7.71-6.85c-0.13-0.4-0.26-0.8-0.39-1.2c-6.05,0-12.1,0-18.15,0
	c-0.02-0.51-0.03-1.02-0.05-1.53c5.88-1.65,12.11,0.18,18.89-0.87c-2.72-3.15-5-5.8-7.29-8.45c0.34-0.33,0.69-0.65,1.03-0.98
	c1.03,0.85,2.09,1.67,3.07,2.56c0.64,0.58,1.2,1.27,1.75,1.94c1.71,2.09,5.23,4.94,4.74,6.14c-1.28,3.14-4.22,5.66-6.71,8.21
	c-0.99,1.02-2.57,1.46-3.88,2.17C448.29,725.55,448.05,725.17,447.81,724.8z"/>
<path d="M690.84,106.68c-0.31,5.6-0.31,5.6-3.07,5.39c0-5.44,0-10.9,0-16.22c2.41-0.19,4.85-0.9,7-0.4
	c1.63,0.38,3.93,2.19,4.09,3.58c0.29,2.44-0.37,5.3-1.56,7.47c-0.48,0.87-3.41,0.41-5.23,0.51
	C691.74,107.04,691.39,106.84,690.84,106.68z M689.14,101.19c1.9,2.03,2.9,4.06,4.29,4.39c2.71,0.63,3.13-1.88,3.14-3.87
	c0.01-1.96-0.26-4.45-3.01-4.05C692.23,97.85,691.11,99.55,689.14,101.19z"/>
<path d="M802.43,620.29c-1.92,0.69-3.87,1.95-5.77,1.89c-1.46-0.05-3.64-1.46-4.14-2.78c-1.42-3.75-3.9-3.91-6.73-2.51
	c-3.87,1.92-7.25,2.64-10.97-0.6c-0.97-0.84-3.63,0.06-5.44,0.49c-0.87,0.21-1.6,1.14-2.31,1.84c-2.11,2.09-4.92,2.83-7.15,1.3
	c-1.96-1.34-3.03-3.99-4.49-6.07c0.41-0.27,0.83-0.53,1.24-0.8c0.67,1.12,1.31,2.26,2.03,3.35c1.95,2.98,4.47,3.3,7.16,0.94
	c5.37-4.69,5.29-4.54,12.1-1.12c1.41,0.71,3.65,0.01,5.45-0.34c1.75-0.34,3.4-1.18,5.15-1.58c2.4-0.54,4.13,0.28,4.79,2.85
	c0.68,2.6,1.61,4.49,4.91,2.6c1.1-0.63,2.78-0.23,4.2-0.3C802.45,619.73,802.44,620.01,802.43,620.29z"/>
<path d="M1074.38,523.89c-0.91-1.94-1.57-3.94-2.7-5.62c-0.93-1.37-2.91-3.56-3.59-3.29c-1.74,0.7-3.16,2.44-4.44,4
	c-0.83,1.01-1.19,2.41-1.77,3.64c-0.38-0.06-0.77-0.13-1.15-0.19c-0.17-1.89-0.59-3.8-0.45-5.66c0.15-1.97,0.12-3.53-2.2-3.97
	c-2.2-0.42-4.46-0.48-5.4,2.02c-0.91,2.42-1.38,5.01-2.09,7.51c-0.12,0.42-0.48,0.78-1.09,1.73c-1.92-4.89-0.04-8.88,0.73-12.76
	c1.35,0,2.59,0.23,3.72-0.04c4.6-1.1,7.51,0.46,8.39,4.91c2.77-1.45,5.19-5.02,8.74-2.12
	C1074.15,516.57,1075.49,520.91,1074.38,523.89z"/>
<path d="M860.31,102.73c0.93,5.19,5.3,1.45,7.36,3.57c-2.81,2.19-5.76,2.42-8.39,0.19c-2.44-2.08-2.55-5.07-1.29-7.88
	c1.12-2.52,3.3-3.79,6.06-3.1c3.46,0.85,4.59,3.44,4.34,7.23C865.76,102.73,863.13,102.73,860.31,102.73z"/>
<path d="M634.54,106.39c-3.21,2.03-6.23,2.39-8.77-0.19c-2.24-2.28-2.45-5.51-0.67-7.95c1.1-1.5,3.74-2.81,5.54-2.64
	c3.52,0.32,4.66,3.24,4.57,7.05c-2.69,0-5.33,0-8.18,0C627.95,107.91,632.34,104.21,634.54,106.39z"/>
<path d="M651.87,90.09c4.75,2.36,1.17,6.62,2.95,8.95c2.04-1.42,4.12-2.87,6.72-4.69c-1.14,3.07-2.65,5.16-2.41,7.03
	c0.27,2.15,2.09,4.11,3.33,6.31c-4.87,1.23-3.77-3.99-6.85-5.34c-0.37,1.12-0.68,2.29-1.15,3.39c-0.39,0.91-0.97,1.73-1.47,2.59
	c-0.37-0.17-0.75-0.33-1.12-0.5C651.87,102.29,651.87,96.75,651.87,90.09z"/>
<path d="M948.52,418.14c-1.93,1.19-3.27,2.36-4.81,2.82c-0.85,0.26-2.06-0.67-3.21-1.1c-0.53,0.37-1.71,1.87-2.92,1.9
	c-2.03,0.05-3.81-1.59-2.97-3.68c0.6-1.51,2.5-3.32,3.99-3.49c3.41-0.39,6.94,0.01,10.38,0.41c0.65,0.07,1.3,1.52,1.66,2.44
	c0.35,0.89,0.43,1.92,0.46,2.9c0.02,0.6-0.29,1.21-0.45,1.82c-0.57-0.45-1.33-0.79-1.67-1.37
	C948.63,420.19,948.71,419.37,948.52,418.14z"/>
<path d="M540.54,102.72c-2.67,0-5.26,0-8.13,0c0.81,5.34,5.52,1.26,7.37,3.62c-2.82,2.03-5.79,2.46-8.48,0.12
	c-2.46-2.13-2.72-5.37-1.12-7.83c1.05-1.62,3.77-3.15,5.63-3.03C539.54,95.85,540.52,99.03,540.54,102.72z"/>
<path d="M597.72,102.82c-2.77,0-5.32,0-8.04,0c0.97,5.14,5.28,1.37,7.47,3.42c-2.76,2.19-5.63,2.49-8.31,0.37
	c-2.58-2.05-2.58-5.06-1.46-7.86c1.02-2.55,3.21-3.92,5.98-3.25C596.81,96.3,598.09,98.81,597.72,102.82z"/>
<path d="M1355.98,21.41c-3.16,1.07-5.81,1.96-9.09,3.07c0-3.42-0.13-5.87,0.09-8.29c0.06-0.64,1.15-1.58,1.87-1.68
	c3.29-0.47,5.69,0.92,7.21,4.37c1.91-2.08,4.39-3.27,6.1-0.56c0.71,1.12,0.02,4.34-1.08,5.14
	C1358.52,25.3,1356.86,23.09,1355.98,21.41z M1348.79,21.94c2.06-0.55,4.93-0.04,4.41-3.26c-0.19-1.13-2.26-1.95-3.47-2.91
	c-0.31,0.3-0.62,0.6-0.93,0.89C1348.79,18.35,1348.79,20.03,1348.79,21.94z"/>
<path d="M768.19,499.2c1.7,1.93,3.4,3.86,5.45,6.19c1.43-1.63,2.91-3.33,4.41-5.04c1.69,2.89,1.44,9.43-1.12,15.48
	c0-1.78-0.07-3.56,0.02-5.34c0.09-1.78,0.35-3.55,0.57-5.68c-5.05,3.09-5.05,3.09-7.75-1.48c-0.74,4.59-1.4,8.66-2.06,12.73
	c-0.57-0.07-1.14-0.14-1.71-0.21c0.44-5.35,0.88-10.7,1.33-16.06C767.62,499.59,767.9,499.39,768.19,499.2z"/>
<path d="M613.14,447.24c-0.88,0.63-1.8,1.29-2.82,2.03c-0.96-1.09-1.74-1.98-3.1-3.53c-0.26,4.84-0.49,8.98-0.71,13.11
	c-0.43-0.03-0.86-0.05-1.29-0.08c0-6.2,0-12.41,0-18.61c0.37-0.16,0.73-0.32,1.1-0.48c1.32,2.11,2.64,4.23,4.15,6.66
	c1.05-2.09,1.96-3.91,2.88-5.72c0.42,0.03,0.84,0.06,1.26,0.08c0.25,3.68,0.49,7.35,0.74,11.03c-0.51,0.08-1.02,0.16-1.53,0.24
	C613.59,450.41,613.37,448.87,613.14,447.24z"/>
<path d="M749.02,108.93c0-3.82,0.22-6.33-0.11-8.76c-0.13-0.97-1.49-1.78-2.29-2.66c-0.87,0.88-2.24,1.64-2.49,2.68
	c-0.43,1.77,0.04,3.75-0.26,5.57c-0.15,0.92-1.17,1.69-1.79,2.53c-0.32-0.21-0.64-0.42-0.96-0.62c0-4.06,0-8.12,0-11.76
	c2.4-0.22,4.64-0.77,6.77-0.49c1.33,0.17,3.33,1.43,3.56,2.51c0.6,2.88,0.5,5.93,0.42,8.91
	C751.87,107.33,750.62,107.8,749.02,108.93z"/>
<path d="M779.65,647.36c-1.19,1.25-2.2,3.3-3.59,3.59c-2.78,0.58-3.67-1.94-4.24-4.16c-0.39-1.52-0.57-3.11-0.7-4.68
	c-0.15-1.81-0.71-3.98,2.23-4.12c2.39-0.12,4.52,0.08,4.7,3.32c0.1,1.8,0.62,3.57,0.96,5.35
	C779.23,646.89,779.44,647.12,779.65,647.36z"/>
<path d="M881.2,107.34c-2.19,0.21-4.46,0.82-6.58,0.48c-1.41-0.22-3.32-1.6-3.65-2.83c-0.26-0.96,1.42-2.61,2.49-3.71
	c0.52-0.54,1.68-0.41,2.42-0.8c0.83-0.44,1.53-1.15,2.28-1.74c-1.04-0.39-2.07-1.04-3.14-1.1c-1.11-0.06-2.25,0.45-3.46,0.3
	c1.88-2.73,4.29-3.12,7.15-2.2c2.74,0.87,2.51,3.03,2.49,5.17C881.18,103.12,881.2,105.34,881.2,107.34z M878.74,103.38
	c-0.42-0.61-0.85-1.22-1.27-1.83c-1.25,0.85-2.49,1.71-3.74,2.56c0.53,0.54,1.32,1.63,1.54,1.52
	C876.5,105.04,877.6,104.16,878.74,103.38z"/>
<path d="M897.63,110.62c4.36-0.36,3.91-2.76,2.66-5.7c-1.26-2.96-2.24-6.04-3.69-10.01c5.35,1.45,3.8,6.41,6.14,8.84
	c2.92-1.9,0.49-7.92,6.26-8.68c-1.89,5.17-3.47,9.84-5.3,14.41C902.37,112.78,899.74,113.31,897.63,110.62z"/>
<path d="M784.58,101.76c-0.05,3.54-2.66,6.21-6.09,6.22c-3.6,0.02-6.35-2.82-6.26-6.48c0.08-3.5,2.72-6.16,6.17-6.23
	C781.94,95.2,784.63,98.02,784.58,101.76z M783.31,101.6c-2.12-1.84-3.29-3.64-4.76-3.95c-2.56-0.54-3.26,1.62-3.28,3.79
	c-0.02,2.26,0.47,4.64,3.3,4.14C780.02,105.33,781.18,103.47,783.31,101.6z"/>
<path d="M731.83,107.98c-3.44,0.01-6.1-2.64-6.19-6.15c-0.09-3.7,2.58-6.54,6.18-6.56c3.43-0.02,6.12,2.64,6.19,6.14
	C738.08,105.11,735.39,107.97,731.83,107.98z M736.74,101.61c-2.19-1.88-3.35-3.64-4.82-3.96c-2.62-0.57-3.27,1.66-3.29,3.79
	c-0.03,2.22,0.41,4.67,3.3,4.15C733.37,105.33,734.54,103.5,736.74,101.61z"/>
<path d="M695.1,637.55c3.32,0,6.2,0,9.08,0c0.06,0.34,0.13,0.69,0.19,1.03c-1.39,0.32-2.82,0.53-4.16,0.99
	c-1,0.35-1.9,1.02-2.84,1.55c0.75,0.61,1.62,1.12,2.22,1.85c1.06,1.28,2.8,2.76,2.69,4.02c-0.13,1.41-2,2.66-3.11,3.98
	c-1.35-1.3-3.58-2.42-3.88-3.92C694.67,643.99,695.1,640.73,695.1,637.55z"/>
<path d="M822.03,750.1c-3.04,0.57-6-0.44-8.19-3.23c-0.52-0.67-0.96-1.94-0.67-2.62c1.55-3.67,11.67-7.48,15.34-5.77
	c0.68,0.31,1.23,1.48,1.33,2.31c0.21,1.6,0.01,3.24,0.06,4.86c0.08,2.8-1.31,4.14-4.04,4.25
	C824.74,749.95,823.62,750.02,822.03,750.1z M815.47,745.21c2.17,2.87,8.71,4.79,11.26,2.47c1.54-1.4,1.33-4.71,1.94-7.29
	C822.5,739.21,818.51,741.03,815.47,745.21z"/>
<path d="M684.75,101.39c0.08,3.69-2.6,6.56-6.15,6.59c-3.46,0.02-6.1-2.6-6.18-6.13c-0.09-3.71,2.56-6.54,6.14-6.58
	C681.98,95.24,684.67,97.9,684.75,101.39z M683.65,101.4c-2.44-1.85-3.69-3.52-5.17-3.75c-2.67-0.43-3.12,1.91-3.12,3.98
	c0,2.08,0.49,4.46,3.12,3.95C680.02,105.29,681.26,103.42,683.65,101.4z"/>
<path d="M570.52,95.27c3.39-0.06,6.14,2.62,6.24,6.09c0.11,3.7-2.54,6.57-6.11,6.62c-3.45,0.05-6.12-2.56-6.22-6.09
	C564.31,98.17,566.92,95.33,570.52,95.27z M575.49,101.58c-2.2-1.86-3.37-3.61-4.84-3.92c-2.62-0.56-3.26,1.68-3.29,3.81
	c-0.03,2.23,0.44,4.67,3.32,4.13C572.14,105.32,573.3,103.49,575.49,101.58z"/>
<path d="M825.12,771.8c3.69,5.43,2.22,8.41-3.44,8.7c-1.84,0.1-3.69,0.01-5.74,0.01c0.71,1.19,1.39,2.32,2.07,3.45
	c-0.19,0.15-0.38,0.3-0.57,0.45c-2.46-1.68-4.93-3.34-7.35-5.08c-0.28-0.2-0.36-0.92-0.28-1.36c0.35-2.02,5.7-5.38,8.78-5.13
	c-2.13,1.53-3.88,2.8-5.63,4.07c0.08,0.35,0.16,0.7,0.25,1.05c3.9,0,7.8,0,11.91,0C825.12,775.7,825.12,773.75,825.12,771.8z"/>
<path d="M680.29,581.8c0.26-0.1,1.07-0.65,1.91-0.69c2.97-0.15,5.96-0.26,8.93-0.12c2.87,0.14,5.43,0.93,5.88,4.47
	c0.48,3.8-1.63,8.55-4.52,9.43c-3.21,0.98-5.98,0.06-7.75-2.84c-0.95-1.56-1.37-3.42-2.1-5.13
	C681.98,585.35,681.22,583.81,680.29,581.8z M688.07,581.85c-1.25,0.86-3.62,1.82-3.55,2.56c0.22,2.49,0.78,5.28,2.19,7.24
	c2.32,3.23,6.13,2.65,7.65-1.07C696.51,585.3,695.65,582.48,688.07,581.85z"/>
<path d="M716.89,782.94c-0.91-0.26-1.28-0.32-1.6-0.48c-1.57-0.78-3.13-1.58-4.7-2.38c0.8-1.33,1.29-3.25,2.46-3.85
	c1.6-0.82,3.71-0.77,5.61-0.77c0.32,0,0.96,1.65,0.89,2.48c-0.28,3.32-0.67,6.65-1.26,9.92c-0.17,0.92-1.21,2.42-1.8,2.39
	c-1.77-0.08-3.5-0.79-4.98-2.05c1.63,0,3.98,0.65,4.7-0.16C717.13,787.02,716.71,784.82,716.89,782.94z"/>
<path d="M847.73,98.23c-2.33-0.22-4.65-0.44-6.98-0.66c-0.15,0.39-0.3,0.78-0.45,1.16c0.98,0.58,1.9,1.33,2.95,1.72
	c2.43,0.9,6,0.71,4.86,4.91c-0.63,2.32-4.9,3.29-7.88,1.9c-1.05-0.49-1.91-1.39-2.85-2.1c0.11-0.3,0.21-0.6,0.32-0.91
	c2.51,0.46,5.02,0.91,7.54,1.37c0.12-0.56,0.24-1.13,0.36-1.69c-1.41-0.47-3.04-0.65-4.19-1.48c-1.42-1.03-2.45-2.61-3.64-3.94
	c1.51-1.08,2.92-2.82,4.55-3.05c1.79-0.26,3.78,0.88,5.68,1.41C847.91,97.32,847.82,97.77,847.73,98.23z"/>
<path d="M647.44,98.27c-2.28-0.25-4.56-0.49-6.84-0.74c-0.15,0.36-0.3,0.73-0.45,1.09c0.85,0.61,1.61,1.44,2.56,1.78
	c2.13,0.76,5.13,0.41,5.39,3.51c0.09,1.05-1.24,2.68-2.33,3.28c-2.81,1.53-5.54,0.89-7.79-1.42c-0.23-0.24-0.27-0.66-0.61-1.55
	c2.8,0.53,5.26,1,7.72,1.46c0.14-0.52,0.29-1.04,0.43-1.56c-1.12-0.47-2.23-0.99-3.38-1.39c-2.22-0.77-4.9-1.14-4.39-4.46
	c0.34-2.19,3.68-3.64,6.52-2.81c1.24,0.36,2.33,1.2,3.49,1.82C647.66,97.62,647.55,97.94,647.44,98.27z"/>
<path d="M884.11,104.24c2.81,0.53,5.26,0.99,7.72,1.45c0.14-0.52,0.29-1.04,0.43-1.56c-1.13-0.47-2.24-0.99-3.39-1.39
	c-2.22-0.77-4.9-1.16-4.37-4.48c0.35-2.19,3.69-3.62,6.54-2.78c1.24,0.36,2.33,1.2,3.28,2.72c-2.33-0.21-4.65-0.41-6.98-0.62
	c-0.15,0.35-0.29,0.7-0.44,1.05c0.85,0.61,1.61,1.45,2.56,1.78c2.14,0.75,5.13,0.4,5.41,3.5c0.09,1.05-1.23,2.69-2.33,3.29
	c-2.81,1.53-5.54,0.91-7.8-1.41C884.52,105.55,884.47,105.13,884.11,104.24z"/>
<path d="M795.7,649.97c1.25-2.52,6.47-0.23,6.03-5.21c-0.86,0.38-1.53,0.57-2.09,0.93c-1.9,1.23-4.12,1.65-5.21-0.43
	c-0.86-1.64-1.04-4.12-0.47-5.9c0.73-2.31,2.86-1.97,5.01-1.25c3.76,1.26,6.34,6.63,4.6,10.23
	C802.64,650.28,798.75,651.11,795.7,649.97z M799.84,639.69c-1.89,0.39-5.06-1.96-4.8,2.37c0.06,0.98,1.48,2.78,1.69,2.7
	C798.74,643.96,801.2,643.23,799.84,639.69z"/>
<path d="M654.11,513.55c0.38-1.83,0.75-3.66,1.02-4.95c-1.96-1.4-3.79-2.72-5.98-4.29c-0.64,3.35-1.28,6.75-1.93,10.15
	c-0.43-0.02-0.85-0.03-1.28-0.05c-0.77-4.03,0.06-8.15-0.11-12.05c4.44-2.52,5.6,1.69,8.27,3.95c1-1.52,1.88-2.85,3.15-4.77
	c2.26,5.45-1.35,8.53-1.7,12.31C655.06,513.76,654.58,513.65,654.11,513.55z"/>
<path d="M351.22,624.73c-1.87,2.41-3.74,4.81-5.6,7.21c-4.87-3.3-9.38-0.27-14.43,0.12c-0.52-3.17-1.04-6.32-1.56-9.46
	c0.38-0.09,0.76-0.18,1.13-0.27c0.65,2.41,1.29,4.81,1.98,7.38c3.35-0.44,6.59-0.87,10.15-1.34c-0.59-2.21-1.15-4.31-1.71-6.42
	c0.32-0.17,0.64-0.33,0.95-0.5c1.03,2.36,2.06,4.72,3.21,7.38c1.66-1.83,3.1-3.42,4.54-5.01
	C350.34,624.13,350.78,624.43,351.22,624.73z"/>
<path d="M758.81,592.19c-2.18-0.7-4.86-0.86-6.4-2.26c-1.37-1.24-2.26-3.99-1.96-5.85c0.49-3,3.42-3.04,6-2.94
	c5.23,0.21,7.58,2.18,7.45,6.22C763.8,590.61,762.28,592.17,758.81,592.19z M761.54,590.04c0.35-0.42,0.7-0.85,1.06-1.27
	c-0.81-1.68-1.25-4.28-2.54-4.81c-1.54-0.64-3.95,0.2-5.7,1c-0.56,0.26-0.56,3.49-0.28,3.58
	C756.5,589.28,759.04,589.59,761.54,590.04z"/>
<path d="M610.67,744.66c-2.06,0.65-3.28,1.03-4.49,1.42c0.23,0.27,0.46,0.53,0.69,0.8c-1.59,1.45-2.95,3.43-4.81,4.21
	c-2.36,0.98-4.71,0.7-4.4-3.15c0.08-0.95-1.45-2.03-2.27-3.09c2.09-1.97,4.47-4.21,7.11-6.69
	C604.72,739.93,607.34,742.02,610.67,744.66z M598.87,743.53c0.44,2.22,0.8,3.99,1.14,5.71c5.79,1.46,2.72-4.72,5.8-5.87
	c-1.39-1.2-2.45-2.11-3.48-3C600.91,741.66,599.83,742.65,598.87,743.53z"/>
<path d="M695.94,773.41c-2.11,1.28-5.78-0.54-5.3,3.99c1.53,0.14,3.16,0.28,4.94,0.44c0,1.97,0,3.9,0,6.09c-2.1,0-4.6,0-7.55,0
	c0-3.06-0.25-6.5,0.1-9.88C688.32,772.15,692.58,771.75,695.94,773.41z"/>
<path d="M60.08,19.19c-1.41-1.26-2.64-3.26-4.26-3.65c-4.28-1.03-4.32-5.33-6.73-7.74c-0.57-0.57-0.41-1.88-0.58-2.86
	c0.95,0.22,1.93,0.35,2.83,0.69c1.27,0.48,2.52,1.07,3.72,1.71c0.72,0.39,1.67,0.82,1.96,1.47c1.38,3.13,2.57,6.34,3.83,9.53
	C60.59,18.63,60.34,18.91,60.08,19.19z"/>
<path d="M319.58,629.89c-1,1.16-1.69,1.97-3.02,3.51c-1.01-3.22-1.8-5.75-2.59-8.28c0.29-0.15,0.58-0.3,0.86-0.45
	c0.82,1.35,1.64,2.7,2.27,3.73c1.84-0.92,3.72-2.49,5.72-2.68c1.87-0.18,4.4,0.61,5.64,1.93c0.66,0.7-0.49,4.73-1.35,4.93
	c-2,0.45-4.32-0.46-6.48-0.98C320.23,631.49,320.01,630.63,319.58,629.89z M327.12,629.9c-0.35-0.6-0.71-1.2-1.06-1.79
	c-1.34,0.64-2.68,1.29-4.03,1.93c0.75,0.48,1.55,1.4,2.24,1.32C325.26,631.25,326.17,630.42,327.12,629.9z"/>
<path d="M656.87,581.18c6.55,0.06,9.01,3.57,6.71,9.76c-0.28,0.75-1.31,1.38-2.14,1.71c-0.89,0.36-1.95,0.3-2.93,0.43
	c-7.81,1.01-10.39-1.97-8.26-9.55C650.86,581.33,651.43,581.13,656.87,581.18z M662.81,591.74c-0.86-3.79-0.71-7.68-2.13-8.37
	c-2.21-1.07-5.79-0.62-8.16,0.5c-1.01,0.48-1.07,6.08-0.49,6.28C654.97,591.18,658.27,591.2,662.81,591.74z"/>
<path d="M822.36,686.5c-0.25-5.24-0.48-10.09-0.71-14.94c0.23-0.05,0.47-0.11,0.7-0.16c0.43,0.93,0.86,1.87,1.29,2.8
	c0.12-0.2,0.25-0.4,0.37-0.6c1.55,0.86,4.1,1.46,4.41,2.65c0.45,1.7-0.36,4.05-1.33,5.72C826.16,683.58,824.35,684.67,822.36,686.5z
	"/>
<path d="M1298.11,17.19c0.18,1.68,0.35,3.35,0.53,5.03c0.34,0.15,0.69,0.31,1.03,0.46c0.63-1.09,1.66-2.12,1.81-3.27
	c0.46-3.63,3.26-3.17,5.52-3.2c0.82-0.01,1.66,1.39,2.5,2.15c-0.98,0-1.97,0-2.95,0c-0.72,4.26-0.5,4.43,4.75,3.75
	c-2.38,3.28-4.41,3.03-6.52-0.05c-2.51,0.61-4.65,1.13-6.78,1.64c-0.44-2.11-0.87-4.22-1.31-6.34
	C1297.15,17.3,1297.63,17.25,1298.11,17.19z"/>
<path d="M725.93,638.43c-1.21,1.29-2.49,2.65-3.77,4.02c1.43,0.88,2.86,1.76,5.05,3.11c-0.35,0.93-0.53,3.02-1.66,3.97
	c-0.87,0.73-3.37,0.58-4.37-0.19c-1.12-0.86-1.9-2.86-1.89-4.36C719.32,638.94,721.86,636.74,725.93,638.43z"/>
<path d="M676.44,648.9c-2.12-0.46-4.11-0.82-6.06-1.35c-0.99-0.27-1.89-0.85-2.83-1.28c0.5-0.79,0.89-1.68,1.52-2.36
	c1.83-1.98,3.75-3.87,6.6-5.59c0,0.96-0.06,1.93,0.02,2.88c0.07,0.83,0.08,2.19,0.51,2.37C681.65,645.82,676.24,647.87,676.44,648.9
	z"/>
<path d="M1183.54,605.14c-0.03,3.99-2.59,6.57-6.5,6.54c-5.39-0.04-9.05-2.79-9.13-6.86c-0.07-3.85,4.08-8.03,7.95-7.99
	C1180.33,596.86,1183.58,600.38,1183.54,605.14z M1182.16,604.9c-0.03-4.03-2.18-6.19-6.15-6.21c-3.57-0.02-6.69,2.79-6.71,6.04
	c-0.02,3.39,3.25,5.79,7.8,5.73C1180.2,610.42,1182.19,608.24,1182.16,604.9z"/>
<path d="M931.88,421.86c-0.68-1.27-1.36-2.54-2.44-4.56c-0.63,2.03-1.03,3.31-1.46,4.69c-3.16-2.98-2.15-10.36,1.47-11.29
	c0.85-0.22,2.87,0.8,2.92,1.37c0.29,3.19,0.14,6.42,0.14,9.63C932.3,421.75,932.09,421.8,931.88,421.86z"/>
<path d="M781.25,745.84c2.57-0.25,4.53-0.23,6.4-0.65c4.18-0.93,5.58,0,5.67,4.24c0.03,1.19-0.25,2.38-0.4,3.72
	c-5.82-0.53,0.93-5.43-3.09-6.43c-0.65,1.62-1.36,3.4-2.08,5.17c-0.28-0.06-0.56-0.12-0.84-0.18c-0.22-1.38-0.44-2.77-0.78-4.94
	c-0.9,1.17-1.51,1.81-1.93,2.55c-0.47,0.82-0.78,1.73-1.16,2.61c-0.35,0.01-0.69,0.01-1.04,0.02
	C781.78,750.05,781.54,748.15,781.25,745.84z"/>
<path d="M666.94,91.61c1.34,1.65,2.32,2.62,2.99,3.78c0.28,0.49,0.18,1.64-0.21,2c-2.51,2.36-2.17,7.29,0.75,9.2
	c-2.24,2.02-4.48,1.57-5.09-1.12c-0.67-2.97-1.64-6.01-1.5-8.97C663.98,94.75,665.96,93.09,666.94,91.61z"/>
<path d="M757.78,91.41c1.45,2.26,2.37,3.71,3.3,5.15c-3.13,2.49-3.12,7.72,0.18,10.16c-2.79,2.06-4.77,1.22-5.26-2.13
	c-0.39-2.64-1.54-5.3-1.3-7.85C754.86,94.85,756.72,93.12,757.78,91.41z"/>
<path d="M827.82,96.84c-3.17,1.83-3.11,7.5,0.15,9.87c-2.6,1.98-4.7,1.34-5.25-1.58c-0.54-2.84,1.04-5.97-1.42-8.72
	c-0.35-0.39,2.16-3.33,3.38-5.13C825.88,93.42,826.78,94.99,827.82,96.84z"/>
<path d="M578.26,96.27c1.24-1.61,2.48-3.23,3.66-4.77c1.15,1.92,2.04,3.39,2.99,4.97c-3.1,3.5-3.04,7.77,1.33,10.91
	c-2.03,0.12-3.5,0.66-4.3,0.15c-0.96-0.61-1.7-2.06-1.89-3.26c-0.43-2.6-0.45-5.26-0.64-7.89C579.02,96.34,578.64,96.3,578.26,96.27
	z"/>
<path d="M796.05,586.61c0.01,5.55-2.13,7.17-7.46,5.44c-0.78-0.25-1.53-1.49-1.73-2.39c-0.25-1.17,0.06-2.47,0.15-3.71
	c0.35-4.9,0.35-4.9,5.14-4.59C795.58,581.59,796.04,582.22,796.05,586.61z M787.88,589.26c0.39,0.44,0.78,0.89,1.17,1.33
	c1.67-0.35,4.17-0.17,4.8-1.17c0.81-1.29,0.38-3.59-0.08-5.31c-0.13-0.51-2.94-1.03-3.18-0.67
	C789.45,585.22,788.75,587.29,787.88,589.26z"/>
<path d="M831.26,583.59c-1.09,1.6-1.92,3.21-3.12,4.46c-1,1.05-2.33,1.97-3.69,2.45c-1.72,0.61-3.52,3.51-5.44,0.58
	c-1.63-2.49,0.42-4.16,1.96-5.79c1.28-1.35,2.44-2.9,3.97-3.87c1.11-0.7,2.79-0.92,4.12-0.71
	C829.79,580.83,830.31,582.27,831.26,583.59z M828.8,581.59c-3.33,3.06-7.41,4.1-8.22,8.36C823.7,587.92,828.93,588.09,828.8,581.59
	z"/>
<path d="M618.16,777.5c0.93-1.29,1.74-3.56,2.82-3.69c4.03-0.5,9.13,2.47,9.18,4.76c0.05,2.17-3.81,4.83-7.09,4.93
	C619.09,783.62,618.7,781.05,618.16,777.5z M628.51,778.51c-2.27-1.85-4.47-3.52-6.98-1.69c-0.72,0.52-0.59,3.94-0.02,4.2
	C624.13,782.21,626.52,781.26,628.51,778.51z"/>
<path d="M732.72,775.83c0.38,1.02,0.75,2.04,1.18,3.2c2.87-0.6,4.02-5.97,9.24-3.39c-1.78,0.65-2.7,0.98-3.48,1.27
	c-1.13,2.48,6.48,3.91,1.02,6.96c-0.92-1.64-1.68-2.98-2.95-5.23c-0.68,3.7-2.89,5.11-4.75,3.76c-1.4-1.02-1.41-3.94-2.04-6.02
	C731.54,776.2,732.13,776.02,732.72,775.83z"/>
<path d="M821.48,645.46c0.68-2.95,0.72-5.12,1.7-6.69c0.69-1.11,2.75-2.03,4.06-1.87c0.95,0.11,2.23,2.05,2.38,3.3
	c0.22,1.76-0.39,3.66-0.79,5.46c-0.5,2.3-1.83,4.22-4.33,3.26C823.12,648.38,822.27,646.42,821.48,645.46z M828.41,642.89
	c-0.97-1.6-1.6-2.64-2.23-3.69c-0.82,1.71-1.83,3.36-2.35,5.15c-0.2,0.7,0.71,1.73,1.11,2.61
	C826.02,645.69,827.1,644.43,828.41,642.89z"/>
<path d="M748.53,516.4c0-5.48,0-10.97,0-16.7c4.08,0.27,7.54,0.49,11.01,0.72c-0.03,0.46-0.07,0.91-0.1,1.37
	c-1.39-0.13-2.77-0.32-4.16-0.38c-3.92-0.18-4.72,0.8-4.68,4.74c0.03,3.45-0.34,6.9-0.53,10.35
	C749.55,516.46,749.04,516.43,748.53,516.4z"/>
<path d="M321.52,417.56c-2.39,0.25-4.78,0.5-7.43,0.78c1.17,2.45,2.13,4.45,3.08,6.45c-0.27,0.16-0.55,0.33-0.82,0.49
	c-2.22-2.49-4.49-4.94-6.61-7.51c-0.29-0.35-0.08-1.49,0.28-1.95c1.58-2.01,3.31-3.92,5.77-5.48c-0.76,1.78-1.53,3.56-2.56,5.97
	c2.9,0,5.59,0,8.27,0C321.51,416.72,321.52,417.14,321.52,417.56z"/>
<path d="M635.74,411.82c1.31,0.12,2.24,0.48,2.94,0.22c2.49-0.91,3.42,0.97,3.68,2.49c0.42,2.44,0.11,5.01,0.11,7.96
	c-1.26-1.49-2.37-2.8-3.67-4.34c-0.92,1.74-1.55,2.92-2.18,4.11c-0.29-0.07-0.59-0.15-0.88-0.22
	C635.74,418.74,635.74,415.43,635.74,411.82z"/>
<path d="M601.22,686.96c-1.77-0.68-3.33-1.35-4.93-1.9c-2.04-0.69-3.69-4.29-2.23-6.68c0.82-1.35,3.64-2.59,5.06-2.17
	c1.35,0.4,2.62,2.93,2.87,4.68C602.29,682.98,601.48,685.24,601.22,686.96z M600.6,682c-0.36-0.64-0.72-1.28-1.08-1.92
	c-0.7-0.78-1.4-1.55-2.1-2.33c-0.54,0.71-1.61,1.53-1.49,2.11c0.2,1,0.95,2.2,1.82,2.65C598.43,682.87,599.63,682.21,600.6,682z"/>
<path d="M707.71,718.38c2.3,0.62,3.34,0.9,4.04,1.09c-1.05-2.06-2.51-3.79-2.64-5.62c-0.07-0.97,2.14-2.11,3.32-3.18
	c0.91,1.16,2.59,2.34,2.55,3.47c-0.08,2.24-0.89,4.56-1.86,6.62c-0.4,0.86-2.28,1.85-2.95,1.55
	C709.26,721.91,708.85,720.34,707.71,718.38z"/>
<path d="M506.92,589.45c-0.43-0.27-0.96-0.42-1.19-0.76c-3.63-5.38-4.96-5.42-9.33-0.43c-1.24,1.41-2.76,2.57-4.59,3.41
	c0.62-5.2,5.53-6.72,8.06-10.13C506.86,584.01,508.18,585.47,506.92,589.45z"/>
<path d="M493.62,636.89c1.57,1.79,2.91,3.09,3.98,4.58c2.19,3.06,4.44,2.38,6.89,0.41c2.09-1.68,4.25-3.27,6.62-5.08
	c-0.58,3.95-8.17,10.08-11.29,9.5C497.5,645.86,493.03,639.71,493.62,636.89z"/>
<path d="M34.67,34.86c0.35-3.57,0.58-7.16,1.19-10.68c0.07-0.4,2.51-0.91,3.44-0.49c0.94,0.43,1.77,1.92,1.91,3.03
	c0.11,0.89-0.89,1.92-1.47,3.04c1.02,1.54,2.08,3.14,3.15,4.75c-0.22,0.21-0.44,0.42-0.67,0.63c-1.56-1.63-3.12-3.27-5.02-5.25
	c-0.51,2.18-0.86,3.65-1.21,5.12C35.55,34.96,35.11,34.91,34.67,34.86z"/>
<path d="M744.8,638.04c4.28,0,8.56,0,12.67,0c-3.4,3.69-6.69,7.25-9.97,10.82c-0.28-0.13-0.55-0.25-0.83-0.38
	c1.57-2.8,3.15-5.6,4.86-8.65c-2.34-0.24-4.57-0.47-6.8-0.7C744.75,638.77,744.77,638.41,744.8,638.04z"/>
<path d="M702.07,773.31c1.99,1.03,3.7,1.92,5.92,3.08c0.14,1.79,0.32,4.19,0.51,6.58c-0.37,0.08-0.74,0.16-1.11,0.23
	c-0.4-1.83-0.81-3.66-1.29-5.86c-1.17,2.41-2.14,4.5-3.2,6.55c-0.26,0.51-0.82,0.87-1.24,1.3c-0.32-0.57-0.96-1.18-0.91-1.72
	C701.13,779.97,701.65,776.47,702.07,773.31z"/>
<path d="M712.86,416.04c-0.48,1.99-0.95,3.98-1.43,5.97c-0.53-0.06-1.06-0.13-1.59-0.19c0.16-2.09-0.06-4.32,0.68-6.18
	c0.29-0.73,2.74-0.92,4.15-0.8c1.76,0.15,4.38-0.57,4.6,2.39c0.09,1.23-0.26,2.75-0.99,3.68c-0.5,0.63-2.44,0.97-2.98,0.53
	c-0.88-0.72-1.23-2.17-1.63-3.37c-0.16-0.49,0.14-1.13,0.23-1.7C713.55,416.26,713.21,416.15,712.86,416.04z"/>
<path d="M659.73,421.61c-0.45-0.93-0.91-1.85-1.36-2.79c-0.76,0.69-1.54,1.39-2.6,2.34c-0.42-1.31-0.76-2.37-1.13-3.52
	c-0.31,0.27-0.51,0.38-0.6,0.55c-0.62,1.19-1.21,2.39-1.82,3.59c-0.4-1.26-0.95-2.5-1.17-3.79c-0.2-1.18-0.04-2.42-0.04-3.9
	c3.23,0.56,6.27,0.57,8.73,1.77c1.02,0.5,0.8,3.54,1.15,5.42C660.5,421.39,660.11,421.5,659.73,421.61z"/>
<path d="M723.41,591.64c-3.2-0.16-4.19-2.28-4.2-5.04c-0.01-3.18,2.63-5.52,5.91-5.19c2.45,0.25,4.87,0.98,5.06,3.99
	C730.38,588.43,726.62,591.74,723.41,591.64z M721.02,587.73c0.51,0.42,1.45,1.75,2.64,2.05c1.92,0.48,5.01-2.46,4.57-4.3
	c-0.2-0.85-2.03-2.17-2.46-1.96C724.09,584.37,720.94,583.21,721.02,587.73z"/>
<path d="M361.53,631.53c-1.78-1.67-3.56-3.35-5.48-5.16c-0.35,1.99-0.77,4.36-1.29,7.28c-3.18-4.46-1.93-9.78,2.08-11.36
	c1.9,0.91,1.03,5.29,4.78,4c0.41,1.47,0.82,2.93,1.23,4.4C362.4,630.96,361.97,631.25,361.53,631.53z"/>
<path d="M734.33,743.84c0.88,0.7,1.66,1.64,2.66,2.07c3.35,1.46,4.21,5.56,1.48,7.98c-1.73,1.53-3.41,1.11-3.99-1.04
	c-0.76-2.84-1.05-5.81-1.53-8.72C733.4,744.02,733.87,743.93,734.33,743.84z"/>
<path d="M790.39,91.07c0,5.44,0,10.88,0,16.49c-1.93,0.91-2.86,0.49-2.83-1.87c0.06-4.23-0.1-8.47,0.08-12.69
	c0.04-0.87,1.16-1.7,1.78-2.54C789.75,90.67,790.07,90.87,790.39,91.07z"/>
<path d="M1408.5,23.36c-1.75,0-3.7,0-5.65,0c0-1.54-0.43-3.28,0.14-4.57c0.5-1.13,2.11-1.78,3.24-2.63
	c0.25,0.21,0.51,0.43,0.76,0.64c0.27-0.91,0.54-1.82,0.81-2.73c0.23,0,0.46,0,0.69,0C1408.5,16.93,1408.5,19.8,1408.5,23.36z"/>
<path d="M1036.1,525.34c0.3-5.65,0.59-11.29,0.89-16.94c0.34-0.01,0.67-0.02,1.01-0.03c0.18,1.59,0.35,3.19,0.53,4.76
	c1.86-0.96,3.64-1.88,5.41-2.81c0.25,0.36,0.49,0.73,0.74,1.09c-6.77,2.46-5.18,9.29-7.33,14.16
	C1036.93,525.5,1036.52,525.42,1036.1,525.34z"/>
<path d="M616.15,676.93c1.48,0.98,2.96,1.96,4.41,2.92c1.49-0.86,0.94-5.91,4.64-1.99c0.84-0.55,1.79-1.18,3.65-2.41
	c-1.35,3.18-2.29,5.41-3.47,8.19c-0.99-1.44-1.63-2.37-2.45-3.56c-0.39,0.84-0.67,1.47-0.98,2.09c-1.13,2.27-2.37,2.41-3.64,0.12
	c-0.88-1.6-1.71-3.22-2.57-4.84C615.88,677.27,616.02,677.1,616.15,676.93z"/>
<path d="M804.61,681c-1.45,0.95-2.91,2.67-4.35,2.66c-2.12-0.01-3.92-1.48-3.66-4.21c0.22-2.32,1.36-4.18,3.71-3.58
	c1.66,0.42,2.96,2.22,4.42,3.4C804.68,679.84,804.64,680.42,804.61,681z"/>
<path d="M734.87,708.69c0.44,1.25,0.89,2.51,1.09,3.09c1.59-0.33,4.07-1.22,4.3-0.81c0.96,1.65,1.23,3.7,1.75,5.6
	c-0.48,0.11-0.97,0.22-1.45,0.33c-0.23-1.04-0.45-2.08-0.82-3.76c-0.17,1.56-0.28,2.5-0.38,3.45c-0.17-0.04-0.36-0.03-0.38-0.09
	c-0.18-0.44-0.32-0.89-0.62-1.75c-0.68,1.86-1.23,3.39-2.1,5.77c-2.77-4.24-2.23-8.01-2.4-11.67
	C734.19,708.79,734.53,708.74,734.87,708.69z"/>
<path d="M617.67,649.32c1.96-2.54,3.74-4.76,5.38-7.08c0.19-0.28-0.36-1.08-0.58-1.68c-1.51,0.15-2.87,0.29-4.23,0.43
	c-0.07-0.51-0.14-1.02-0.21-1.53c2.06-0.2,5.05-1.35,6.01-0.42c3.26,3.19,0.18,5.94-2.31,8.69c2.11,0.28,3.59,0.48,5.07,0.67
	c-0.01,0.3-0.03,0.61-0.04,0.91C623.85,649.32,620.94,649.32,617.67,649.32z"/>
<path d="M645.81,639.02c2.07,0,4.14,0,5.8,0c0.27,2.26,0.72,4.15,0.64,6c-0.07,1.5-0.35,3.68-1.32,4.26
	c-1.22,0.74-3.25,0.27-4.9,0.07c-0.39-0.05-1-1.2-0.87-1.66c0.13-0.47,1.33-1.15,1.59-0.99c1.24,0.77,2.54,2.83,3.47,0.09
	c0.29-0.86-1.25-2.35-2.24-4.03c0.15-0.18,0.8-0.97,1.72-2.09c-1.42-0.19-2.63-0.35-3.84-0.5
	C645.84,639.78,645.82,639.4,645.81,639.02z"/>
<path d="M1292.69,16.78c0.39-1.31,0.69-2.29,1.08-3.58c2.71,4.8,0.52,10.24-4.1,11.17C1287.58,19.3,1288.59,16.74,1292.69,16.78z"/>
<path d="M647.97,681.83c0.93,0.22,2.37,0.55,4.55,1.05c-4.61,1.84-8.99,0.15-8.43-2.77c0.32-1.67,2.16-3.31,3.74-4.31
	c0.52-0.33,2.35,1.4,3.58,2.19C650.27,679.25,649.15,680.51,647.97,681.83z"/>
<path d="M763.66,95.77c2.54,0,4.72,0,6.92,0c0,0.37,0.04,0.8-0.01,0.81c-5,0.97-4.08,4.88-4.14,8.31c-0.05,2.75-0.05,2.75-2.77,2.9
	C763.66,103.72,763.66,99.66,763.66,95.77z"/>
<path d="M663.33,708.05c0.36,2.72,1.04,5.18,0.82,7.56c-0.1,1.04-1.94,2.18-3.23,2.71c-0.49,0.2-2.11-0.99-2.4-1.83
	C657.44,713.35,659.44,709.9,663.33,708.05z"/>
<path d="M634.22,719.51c-3.46-5.66-3.57-7.96-0.7-9.48c2.24-1.19,3.69-0.73,4.55,1c-1.7,1.06-3.31,2.06-4.93,3.07
	c0.91,1.2,1.83,2.39,2.94,3.85c-1.04,3.9-3.03,4.78-8.88,2.71C629.99,720.2,632.01,719.87,634.22,719.51z"/>
<path d="M611.22,712.77c-0.87-0.27-1.75-0.54-2.78-0.85c0.27-0.45,0.52-0.99,0.59-0.97c1.46,0.48,3.84,0.73,4.13,1.63
	c0.52,1.62,0.39,4.22-0.63,5.31c-0.87,0.93-3.39,0.31-5.18,0.38c0.24-1.3,0.16-2.8,0.83-3.83c0.43-0.66,1.94-0.61,2.96-0.89
	C611.16,713.29,611.19,713.03,611.22,712.77z"/>
<path d="M1328.3,20.09c-2.24,2.12-3.72,3.52-5.21,4.93c-0.83-1.35-2.09-2.61-2.4-4.07c-0.47-2.2,0.62-4.25,3.06-4.14
	C1325,16.86,1326.19,18.49,1328.3,20.09z"/>
<path d="M635.77,511.15c1.99-0.23,4.17-0.48,6.34-0.73c0.06,0.33,0.12,0.65,0.18,0.98c-2.93,0.95-5.86,1.9-8.85,2.87
	c-0.3-4.76-0.59-9.34-0.88-13.93c0.31-0.08,0.62-0.16,0.93-0.24C634.24,503.75,634.99,507.39,635.77,511.15z"/>
<path d="M979.31,418.85c2.42-1.72,3.82-3.18,5.52-3.69c0.59-0.18,2.91,2.64,2.68,3.01c-0.99,1.61-2.49,3.07-4.13,4.02
	C982.96,422.43,981.33,420.56,979.31,418.85z"/>
<path d="M969.28,422.34c-1.1,0.14-2.84,0.78-3.17,0.35c-1.09-1.45-2.12-3.25-2.28-4.99c-0.08-0.93,1.55-2.21,2.66-2.96
	c0.54-0.37,1.75-0.08,2.49,0.27c0.79,0.37,1.37,1.17,2.05,1.78c-0.65,0.62-1.21,1.42-1.98,1.82c-0.87,0.46-1.93,0.56-2.85,1.62
	c0.94,0.3,1.87,0.59,2.81,0.89C969.1,421.52,969.19,421.93,969.28,422.34z"/>
<path d="M365.68,631.85c-0.47-2.83-1.01-6.05-1.54-9.26c0.21-0.04,0.42-0.08,0.62-0.11c1.77,2.5,3.53,4.99,5.62,7.95
	c1.4,0.11,3.51,0.27,5.62,0.43c-0.01,0.33-0.02,0.67-0.03,1C372.68,631.85,369.38,631.85,365.68,631.85z"/>
<path d="M592.69,592.43c1.32-1.66,2.64-3.32,3.87-4.85c-0.5-1.75-0.97-3.36-1.43-4.97c0.31-0.11,0.62-0.23,0.93-0.34
	c0.57,0.86,1.14,1.72,2.42,3.65c0.89-1.9,1.61-3.46,2.34-5.02c0.51,0.41,1.02,0.82,1.52,1.23c-0.85,1.46-1.69,2.91-2.64,4.53
	c0.84,0.78,1.59,1.48,2.79,2.59c-2.12,0.25-3.88,0.07-5.22,0.73c-1.44,0.71-2.49,2.21-3.71,3.36
	C593.27,593.03,592.98,592.73,592.69,592.43z"/>
<path d="M1287.37,19.37c-1.76,1.81-2.99,3.07-4.22,4.34c-0.83-1.18-2.23-2.29-2.38-3.55c-0.27-2.18,0.98-4.05,3.43-3.88
	C1285.09,16.34,1285.89,17.87,1287.37,19.37z"/>
<path d="M1398.79,18.48c-1.35-0.23-2.1-0.36-2.85-0.49c0.05-0.37,0.1-0.74,0.15-1.11c1.27,0.21,3.57,0.25,3.64,0.67
	c0.36,2.14,0.16,4.38,0.15,6.58c-1.59-0.09-3.19-0.08-4.73-0.4c-0.21-0.04-0.43-2.05,0.01-2.68
	C1395.81,20.13,1397.06,19.64,1398.79,18.48z"/>
<path d="M1373.64,23.28c-0.11,0.24-0.52,1.19-1.2,2.71c-1.34-1.44-2.3-2.48-2.93-3.15c-1.16,0.2-2.8,0.66-2.87,0.47
	c-0.85-2.06-1.46-4.21-2.13-6.34c0.4-0.12,0.8-0.24,1.19-0.36c0.4,1.02,0.8,2.04,1.35,3.44c0.73-1.01,1.25-1.74,1.74-2.42
	C1370.28,19.35,1371.68,20.99,1373.64,23.28z"/>
<path d="M818.76,101.63c0,1.49,0.17,3-0.07,4.45c-0.12,0.7-1.01,1.26-1.54,1.89c-0.49-0.55-1.36-1.09-1.39-1.66
	c-0.13-3.09-0.13-6.2,0.01-9.29c0.03-0.6,0.86-1.15,1.33-1.73c0.54,0.63,1.44,1.19,1.55,1.89c0.24,1.45,0.07,2.96,0.07,4.45
	C818.73,101.63,818.75,101.63,818.76,101.63z"/>
<path d="M698.83,417.19c-2.03,2-3.28,3.22-4.52,4.45c-0.99-1.15-2.86-2.38-2.77-3.44c0.13-1.48,1.72-2.83,2.68-4.24
	C695.43,414.81,696.65,415.66,698.83,417.19z"/>
<path d="M787.07,711.22c1.24-0.31,2.48-0.61,3.73-0.92c0.09,0.21,0.19,0.42,0.28,0.64c-1.08,0.9-2.16,1.79-3.44,2.85
	c1.19,1.55,2.31,3.01,3.66,4.77c-2.94,0.82-3.69-4.75-6.44-1.05c0-3.44,0-6.42,0-9.39c0.34-0.07,0.68-0.14,1.02-0.21
	C786.28,709.01,786.67,710.12,787.07,711.22z"/>
<path d="M689.46,415.45c-1.04-0.41-2.09-0.82-3.63-1.42c0,2.4,0,4.4,0,6.81c1.35-0.41,2.54-0.78,3.74-1.15
	c0.21,0.31,0.42,0.62,0.63,0.93c-1.05,0.64-2.28,1.97-3.1,1.75c-1.37-0.36-3.2-1.5-3.54-2.69c-0.71-2.42-1.16-5.43,1.68-6.98
	C687.33,411.57,688.91,412.84,689.46,415.45z"/>
<path d="M980.22,419.99c-1.05,1.66-2.78,2.37-5,1.34c-1.94-0.9-2.78-5.23-0.99-7.33c1.03-1.2,3.28-1.37,5-1.91
	c0.12-0.04,0.76,0.77,0.68,1.01c-0.17,0.48-0.83,1.26-1.03,1.19c-4.14-1.42-3.56,1.8-3.14,3.67
	C975.94,418.81,978.29,419.17,980.22,419.99z"/>
<path d="M954.41,422.1c-0.83-1.29-2.47-2.74-2.26-3.84c0.24-1.27,2.1-2.24,3.26-3.34c0.94,1.1,2.59,2.17,2.63,3.3
	c0.04,1.27-1.37,2.59-2.14,3.89C955.4,422.1,954.91,422.1,954.41,422.1z"/>
<path d="M912.75,90.45c0.88,0.51,2.53,1.03,2.53,1.52c-0.06,3.83-0.44,7.65-0.72,11.47c-0.53,0-1.05-0.01-1.58-0.01
	c-0.36-4.03-0.73-8.06-1.09-12.09C912.17,91.05,912.46,90.75,912.75,90.45z"/>
<path d="M677.33,420.4c0.64,0.4,1.62,1.02,2.8,1.76c-4.14,1.18-7.74-1.38-6.62-4.56c0.44-1.25,2.07-2.23,3.37-2.93
	c0.41-0.22,2.25,1.01,2.19,1.33C678.81,417.38,678.08,418.66,677.33,420.4z"/>
<path d="M668.63,418.33c-1.62,1.68-2.78,2.88-3.94,4.09c-1-1.3-2.87-2.68-2.77-3.89c0.13-1.42,1.97-2.69,3.06-4.03
	C666.01,415.58,667.03,416.65,668.63,418.33z"/>
<path d="M633.36,745.53c2.16,0.19,4.31,0.39,6.47,0.58c0.36,0.58,0.71,1.16,1.07,1.74c-1.48,0.63-2.96,1.27-5.18,2.22
	c2.29,1.03,3.4,1.52,4.51,2.02c-0.05,0.31-0.1,0.63-0.14,0.94c-2.14-0.18-4.27-0.37-6.94-0.6c1.05-1.85,1.77-3.11,2.58-4.54
	c-0.87-0.42-1.7-0.82-2.53-1.23C633.25,746.29,633.31,745.91,633.36,745.53z"/>
<path d="M1389.07,20.17c-0.71-2.26-0.29-3.98,2.38-3.62c0.86,0.12,2.16,1.56,2.19,2.43c0.07,2.09-0.25,4.59-3.08,4.6
	c-0.76,0-1.53-1.88-2.3-2.9C1388.53,20.5,1388.8,20.33,1389.07,20.17z"/>
<path d="M718.73,675.59c1.71,1.23,3.43,2.46,5.26,3.77c0.65-0.82,1.36-1.71,2.27-2.86c0.28,4.85-1.23,8.51-2.99,9.25
	c-0.58-1.68-0.96-3.48-1.81-5.01c-0.9-1.63-2.25-3.01-3.4-4.5C718.28,676.02,718.51,675.81,718.73,675.59z"/>
<path d="M1380.67,22.85c-0.53-1.7-1.06-3.4-1.59-5.09c-0.33,0.05-0.66,0.1-0.99,0.15c-0.25,2.01-0.5,4.03-0.75,6.04
	c-0.47-0.02-0.93-0.03-1.4-0.05c0-2.4-0.16-4.82,0.17-7.18c0.05-0.35,3.26-0.89,3.5-0.47c1.12,1.94,1.71,4.19,2.48,6.32
	C1381.62,22.66,1381.14,22.76,1380.67,22.85z"/>
<path d="M605.32,779.08c-5.7,0-10.38,0-15.29,0C592.07,776.59,601.28,776.29,605.32,779.08z"/>
<path d="M601.91,636.45c-0.79,4.31-1.45,7.88-2.11,11.44c-0.29-0.01-0.58-0.01-0.88-0.02c0-2.37,0-4.74,0-7.24
	c-1.46-0.21-2.78-0.39-4.1-0.58c-0.02-0.28-0.04-0.56-0.06-0.83C596.88,638.4,598.99,637.58,601.91,636.45z"/>
<path d="M1267.97,25.26c-0.4-2.3-0.79-4.6-1.19-6.91c-0.37-0.08-0.74-0.16-1.12-0.24c-0.84,1.84-1.68,3.69-2.51,5.53
	c-0.24,0-0.49,0-0.73,0.01c-0.14-2.19-0.27-4.39-0.45-7.28c2.39,0.61,5.26,0.49,6.11,1.75c1.21,1.79,0.95,4.57,1.32,6.94
	C1268.92,25.12,1268.44,25.19,1267.97,25.26z"/>
<path d="M688.65,747.51c-0.89,0-1.79,0-2.74,0c-1.18,5.37,3.03,2.57,5.35,3.67c-2.09,2.01-4.37,2.31-6.35,1.08
	c-2.32-1.45-2.08-4.11-0.59-5.9c0.69-0.83,2.9-0.39,4.42-0.53C688.7,746.39,688.67,746.95,688.65,747.51z"/>
<path d="M698.9,420.94c-0.12-2.69-1.26-5.82,2.62-7c0.74-0.23,2.58,0.58,2.62,1.03c0.21,2.14,1.65,4.56-1.1,6.46
	c-0.16-1.53-0.32-3.06-0.56-5.28c-1.03,2.08-1.81,3.64-2.58,5.21C699.57,421.22,699.23,421.08,698.9,420.94z"/>
<path d="M763.03,747.71c-1.07,2.06-1.67,3.21-2.27,4.37c-0.28-0.08-0.57-0.16-0.85-0.24c0-1.72,0-3.43,0-5.92
	c1.73,0.45,4.03,0.38,4.6,1.34c1.15,1.93,2.28,4.43-0.15,7.27C763.91,752.21,763.56,750.41,763.03,747.71z"/>
<path d="M752.8,677.61c-0.11,1.67,0.1,3.46-0.47,4.95c-0.29,0.77-2.4,1.7-2.94,1.36c-1.29-0.81-2.36-2.2-3.09-3.59
	c-0.59-1.11-0.57-2.55-0.83-3.85c0.37-0.13,0.73-0.27,1.1-0.4c0.39,1,0.69,2.05,1.21,2.98c0.59,1.06,1.38,2.02,2.08,3.02
	c0.36-1.06,0.72-2.13,1.08-3.19c0.15-0.43,0.29-0.86,0.43-1.29C751.85,677.61,752.33,677.61,752.8,677.61z"/>
<path d="M51.91,21.48c-4.41-0.3-7.92-2.13-9.9-6.04c-0.33-0.64,0.39-1.81,0.52-2.33C45.78,16.01,48.85,18.75,51.91,21.48z"/>
<path d="M646.33,420.28c0.53,0.26,1.23,0.6,1.93,0.94c-0.04,0.28-0.09,0.55-0.13,0.83c-1.03-0.08-2.68,0.19-2.98-0.32
	c-0.74-1.25-1.21-2.9-1.09-4.33c0.08-0.9,1.45-2.39,2.19-2.36c1.07,0.04,2.08,1.23,3.12,1.93
	C648.44,418,647.49,419.03,646.33,420.28z"/>
<path d="M892.02,416.3c3.25,0,5.64,0,8.03,0c0.02,0.31,0.04,0.63,0.06,0.94c-2.43,0.16-4.85,0.32-7.84,0.52
	c1.24,1.42,2.1,2.4,2.95,3.37c-0.18,0.21-0.36,0.41-0.54,0.62c-1.63-1.54-3.27-3.07-4.87-4.58c1.81-1.95,3.4-3.65,4.99-5.36
	c0.16,0.14,0.31,0.28,0.47,0.42C894.39,413.34,893.52,414.44,892.02,416.3z"/>
<path d="M609.8,417.3c-2.36,0.12-4.72,0.24-7.6,0.39c1.08,1.42,1.92,2.52,2.76,3.62c-0.17,0.17-0.33,0.34-0.5,0.51
	c-1.67-1.59-3.33-3.17-5.22-4.97c2.06-1.76,3.82-3.25,6.22-5.3c-1.32,1.75-2.19,2.91-3.54,4.71c3.02,0,5.45,0,7.89,0
	C609.8,416.61,609.8,416.95,609.8,417.3z"/>
<path d="M671.36,686.34c0-3.13-0.31-6.31,0.2-9.36c0.14-0.84,2.75-1.26,4.65-1.34c-5.41,2.35-1.18,7.8-3.68,10.81
	C672.14,686.42,671.75,686.38,671.36,686.34z"/>
<path d="M1334.71,23.77c-0.56-2.07-0.95-3.51-1.34-4.95c-0.31-0.06-0.62-0.11-0.94-0.17c-0.67,1.69-1.33,3.39-2,5.08
	c-0.43-0.09-0.86-0.18-1.29-0.27c0.4-2.08,0.58-4.25,1.36-6.18c0.18-0.45,2.88-0.59,3.62,0.06
	C1335.88,18.83,1336.18,20.98,1334.71,23.77z"/>
<path d="M658.72,745.84c1.51-0.34,3.04-0.68,5.11-1.15c-0.62,1.28-1.42,2.27-1.52,3.33c-0.11,1.12,0.44,2.31,0.8,3.91
	c-1.82-0.7-3.78-1.88-4.93,0.84C658.36,750.43,658.55,748.08,658.72,745.84z"/>
<path d="M748.55,785.95c-0.79-4.79-1.62-9.84-2.63-15.93C750.25,776.93,750.97,784.01,748.55,785.95z"/>
<path d="M678.47,784.28c-2.41-1.2-4.82-2.4-7.23-3.61c2.22-1.85,4.43-3.69,6.65-5.54c0.34,0.46,0.68,0.92,1.02,1.37
	c-1.81,1.21-3.62,2.41-5.76,3.84c2.17,1.28,3.92,2.32,5.67,3.35C678.71,783.9,678.59,784.09,678.47,784.28z"/>
<path d="M711.04,752.52c-0.88-2.53-1.53-4.42-2.19-6.32c0.34-0.14,0.68-0.28,1.01-0.41c0.7,1.03,1.41,2.05,2.19,3.2
	c0.34-0.4,0.52-0.56,0.64-0.76c0.58-0.95,1.12-1.92,1.76-2.82c0.04-0.06,1.18,0.46,1.16,0.57c-0.29,1.26-0.46,2.64-1.14,3.68
	C713.84,750.62,712.64,751.22,711.04,752.52z"/>
<path d="M728.69,785.72c-0.08-0.03-1.41-0.12-1.52-0.54c-1.09-4.19-0.24-8.14,2.2-11.89C729.16,777.18,728.95,781.06,728.69,785.72z
	"/>
<path d="M1278.95,14.55c-1,3.27-1.87,6.14-2.75,9.01c-0.36-0.03-0.73-0.06-1.09-0.09c0.21-2.35,0.1-4.81,0.77-7.02
	C1276.18,15.5,1278.1,15.04,1278.95,14.55z"/>
<path d="M699.08,675.11c0.68,3.49,1.36,6.97,2.14,10.97c-0.9-0.72-2.57-1.38-2.75-2.33c-0.54-2.8-0.49-5.72-0.67-8.6
	C698.22,675.15,698.65,675.13,699.08,675.11z"/>
<path d="M1011.79,422.26c0-3.36,0-6.71,0-10.07c0.37,0,0.74,0.01,1.1,0.01c0,3.36,0,6.71,0,10.07
	C1012.52,422.26,1012.16,422.26,1011.79,422.26z"/>
<path d="M1272.38,24.38c-0.7-2.42-1.4-4.84-2.18-7.53c0.56-0.67,1.34-1.59,2.6-3.09c0.29,3.8,0.53,6.93,0.76,10.05
	C1273.17,24.01,1272.78,24.19,1272.38,24.38z"/>
<path d="M814.04,705.33c-0.51,4.24-0.98,8.11-1.48,12.25C810.22,714.79,810.97,708.71,814.04,705.33z"/>
<path d="M760.88,721.38c0.45-4.01,0.91-8.05,1.36-12.1C764.97,712.68,763.85,720.16,760.88,721.38z"/>
<path d="M721.61,421.24c0-3.21,0-6.43,0-9.64c0.32,0.01,0.63,0.02,0.95,0.03c0,3.21,0,6.41,0,9.62
	C722.24,421.25,721.92,421.24,721.61,421.24z"/>
<path d="M651.63,772.81c-0.89,1.29-1.43,2.69-2.45,3.33c-0.63,0.4-2.48-0.02-2.92-0.66c-1.11-1.61-1.74-3.55-2.55-5.36
	c0.44-0.19,0.88-0.37,1.33-0.56c0.54,1.25,0.77,2.97,1.72,3.6C647.6,773.7,649.24,773.04,651.63,772.81z"/>
<path d="M688.45,707.28c-0.63,3.83-1.2,7.25-1.78,10.8C684.03,714.67,684.86,709.36,688.45,707.28z"/>
<path d="M803.33,104.37c-1.18-1.04-1.99-1.77-2.81-2.49c1.06-0.46,2.11-1.28,3.17-1.27c1.04,0.01,2.07,0.86,3.1,1.34
	C805.79,102.64,804.79,103.35,803.33,104.37z"/>
<path d="M45.68,11.15c2.59,1.98,5.18,3.95,7.77,5.93C49.06,17.47,46.77,15.07,45.68,11.15z"/>
<path d="M708.43,413.72c0,2.64,0,5.27,0,7.91c-0.45,0.1-0.89,0.2-1.34,0.31c-0.45-2.08-1.14-4.15-1.23-6.24
	c-0.04-0.89,1.17-1.84,1.82-2.76C707.93,413.2,708.18,413.46,708.43,413.72z"/>
<path d="M962.38,421.46c-2.91-0.77-3.78-4.65-1.71-9.27C961.32,415.69,961.81,418.38,962.38,421.46z"/>
<path d="M671.53,422.8c-2.74-3.51-2.62-7.82,0-10.31C671.53,415.88,671.53,418.9,671.53,422.8z"/>
<path d="M789.02,783.9c0.82,2.38-0.44,3.87-2.46,4.85c-0.32,0.16-1.08-0.57-1.64-0.89c0.92-1.58,1.84-3.16,2.77-4.74
	C788.13,783.38,788.57,783.64,789.02,783.9z"/>
<path d="M1313.41,23.72c0-3.08,0-6.16,0-9.25c0.38,0.02,0.75,0.04,1.13,0.05c0,3.12,0,6.24,0,9.37
	C1314.16,23.83,1313.78,23.77,1313.41,23.72z"/>
<path d="M1319.67,14.78c-0.37,2.86-0.73,5.71-1.1,8.57c-0.46-0.05-0.93-0.1-1.39-0.15c0.34-2.87,0.69-5.75,1.03-8.62
	C1318.69,14.64,1319.18,14.71,1319.67,14.78z"/>
<path d="M380,420.46c-0.16-1.3-0.35-2.91-0.55-4.53c5.85-0.78,5.96-0.68,5.06,4.03c-0.49-0.97-1.25-2.45-2-3.93
	C381.68,417.52,380.83,419,380,420.46z"/>
<path d="M1384.35,23.4c0-2.96,0-5.93,0-8.89c0.3,0,0.6,0.01,0.89,0.01c0.17,2.98,0.34,5.97,0.5,8.95
	C1385.28,23.45,1384.82,23.43,1384.35,23.4z"/>
<path d="M775.34,673.84c0,3.07,0,6.14,0,9.21c-0.29-0.01-0.58-0.02-0.87-0.03c0-3.08,0-6.16,0-9.24
	C774.76,673.8,775.05,673.82,775.34,673.84z"/>
<path d="M1259.5,14.51c0,3.22,0,6.45,0,9.67c-0.27-0.02-0.54-0.03-0.8-0.05c0-3.22,0-6.44,0-9.66
	C1258.96,14.49,1259.23,14.5,1259.5,14.51z"/>
<path d="M764.14,780.45c-1.94,1.04-3.31,1.77-4.81,2.57c0.66-2.26,1.27-4.35,1.96-6.75C762.07,777.39,762.96,778.72,764.14,780.45z"
	/>
<path d="M509.44,391.2c0-1.64,0-3.07,0-4.73c2.17,0,4.2,0,6.5,0c0.13,1.55,0.25,2.99,0.39,4.73
	C514.03,391.2,511.9,391.2,509.44,391.2z"/>
<path d="M1090,386.45c2.18,0,4.22,0,6.46,0c0.12,1.63,0.23,3.08,0.36,4.79c-2.32,0-4.47,0-6.82,0
	C1090,389.76,1090,388.33,1090,386.45z"/>
<path d="M799.73,386.25c1.27,0,2.35-0.03,3.44,0.01c0.97,0.04,1.93,0.15,3.09,0.24c0.1,1.6,0.2,3.06,0.31,4.76
	c-2.33,0-4.49,0-6.83,0C799.73,389.72,799.73,388.28,799.73,386.25z"/>
<path d="M676.4,217.13c2.28-2.37,4.48-3.28,7.37-1.43c0.8,0.51,2.01,0.36,2.98,0.66c1.56,0.49,3.08,1.1,5.09,1.83
	c0.6-0.45,1.95-2.21,3.48-2.39c1.36-0.16,2.92,1.45,4.53,2.35c3.52-4.1,6.56-3.97,11.65,1.28c0.44-0.74,0.7-1.59,1.27-2.05
	c0.8-0.64,2.15-1.59,2.69-1.31c0.85,0.45,1.66,1.78,1.72,2.78c0.15,2.35,0.04,4.76-0.33,7.08c-0.26,1.62-0.75,3.95-1.85,4.5
	c-1.2,0.59-3.25-0.51-3.84-0.64c-2.37,0.8-4.57,2.27-5.53,1.69c-1.32-0.8-1.69-3.15-2.12-4.09c-1.06,1.07-2.45,3.32-4.42,4.09
	c-0.89,0.35-2.93-2.25-4.01-3.14c-1.31,1.04-2.9,2.29-4.49,3.55c-1.85-2.59-3.7-5.18-5.1-7.14c-1.54,1.42-3.54,4.65-6.14,5.24
	c-2.47,0.57-5.58-1.6-8.48-2.6c-1.52,3.86-7.57,6.13-12.04,3.54c-0.76-0.44-1.19-2.08-1.15-3.14c0.14-3.71,0.55-7.42,0.89-11.57
	c4.34,0.27,8.91-1.17,12.65,2.66c1.18-0.54,2.35-1.08,3.79-1.75c-0.8,2.13-2.04,3.92-1.96,5.65c0.09,1.93,0.87,4.63,2.28,5.49
	c1.48,0.91,5.26,0.85,5.91-0.17c1.62-2.5,2.67-5.77,2.73-8.75C684.02,216.84,682.4,216.56,676.4,217.13z M694.18,223.44
	c0.4,0.01,0.81,0.02,1.21,0.03c0.63,1.56,1.18,3.17,1.93,4.68c0.4,0.8,1.16,1.42,1.76,2.12c0.7-0.76,1.76-1.4,2.05-2.29
	c1.05-3.3,1.87-6.67,2.7-10.03c0.07-0.27-0.44-0.68-0.88-1.3c-1.22,2.17-2.26,4.01-3.31,5.88c-1.65-2.24-2.8-3.81-3.95-5.38
	c-1.54,1.89-3.09,3.78-4.71,5.77c-2.78-0.13,0.03-6.25-5.25-4.82c2.06,4.25,1.39,9.32,5.82,13.26
	C692.55,228.31,693.36,225.87,694.18,223.44z M659.3,224.21c-0.08,1.24-0.35,2.51-0.16,3.71c0.12,0.79,0.77,1.89,1.43,2.12
	c4.65,1.65,8.23,0.01,9.27-4.67c0.44-2,0.19-5.5-1-6.22c-2.2-1.32-5.36-1.41-8.07-1.24c-0.58,0.04-0.96,3.36-1.4,5.18
	C659.29,223.45,659.33,223.84,659.3,224.21z M712.77,223.82c-2.34-2.62-4.12-4.61-5.9-6.61c-0.33,0.25-0.65,0.5-0.98,0.76
	c-0.18,3.95-0.36,7.9-0.57,12.41c4.68-0.37,1.85-4.82,4.46-6.77c0.77,1.54,1.39,3.02,2.24,4.35c0.41,0.64,1.21,1.13,1.93,1.39
	c0.26,0.09,1.19-0.68,1.2-1.08c0.1-3.56,0.06-7.13,0.06-10.7c-1.14,0.82-1.43,1.7-1.65,2.6
	C713.33,221.11,713.15,222.05,712.77,223.82z"/>
<path d="M745.27,223.14c0.55-1.53,0.67-2.63,1.26-3.34c0.89-1.05,2.04-2.38,3.21-2.53c0.79-0.1,2.06,1.48,2.7,2.55
	c1.37,2.31,2.46,4.78,3.67,7.18c0.39-0.07,0.78-0.13,1.16-0.2c0-2.51,0.11-5.02-0.03-7.52c-0.12-2.12,0.46-3.38,2.82-3.35
	c0.74,0.01,1.47-0.3,2.21-0.36c7.11-0.62,6.93-0.33,8.48,7.14c0.92,4.47-2.52,7.96-7.12,8.64c-2.96,0.44-5.8,1.72-8.83,0.5
	c-0.79-0.32-1.97-0.29-2.37-0.86c-1.65-2.36-2.76-1.62-4.79-0.19c-1.13,0.8-3.63-0.33-5.51-0.6c0.02-0.34,0.04-0.68,0.07-1.02
	c-2.3,0.89-4.83,2.88-6.85,2.45c-4.55-0.97-8.8,0.82-13.22,0.35c-2.46-0.26-3.65-1.23-3.81-3.63c-0.18-2.62-0.2-5.27-0.69-7.83
	c-0.65-3.43,1.54-4.23,3.97-4.55c3-0.4,2.97,2.03,3.05,4.02c0.05,1.23-0.5,2.52-0.29,3.69c0.16,0.93,1.07,1.72,1.65,2.57
	c0.85-0.65,1.7-1.3,2.54-1.97c0.07-0.06,0.04-0.24,0.06-0.36c0.48-3.16-0.25-7.3,4.16-7.99
	C738.85,214.98,742.78,217.41,745.27,223.14z M729.85,224.2c-0.13,3.54,1.9,6.08,4.97,6.19c3.89,0.14,7.96-3.34,8.19-7
	c0.21-3.34-2.33-5.69-6.29-5.83C732.26,217.4,730.02,219.56,729.85,224.2z M758.74,230.51c1.96-0.21,3.2-0.53,4.42-0.44
	c3.12,0.21,5.45-1.12,5.66-4.12c0.19-2.8,0.07-6.33-1.49-8.3c-0.97-1.23-4.85-0.26-7.41-0.03c-0.45,0.04-1.1,1.3-1.13,2.01
	C758.68,223.23,758.74,226.82,758.74,230.51z M744.36,230.2c3.04-1.21,5.44-2.16,7.84-3.12c-0.03,0.36-0.06,0.72-0.09,1.08
	c1.21,0.86,2.42,1.73,3.63,2.59c-1.17-4.14-2.67-7.63-4.44-10.98c-0.96-1.83-2.58-1.64-3.33,0.14
	C746.63,223.06,745.68,226.36,744.36,230.2z M728.35,230.41c0.08-0.42,0.15-0.85,0.23-1.27c-0.77-0.36-1.56-1.06-2.3-1.01
	c-3.82,0.27-3.91-2.02-3.59-4.8c0.22-1.9,0.26-3.82,0.4-6.02c-1.33,0.15-2.44-0.02-2.67,0.36c-0.58,0.92-1.14,2.13-1.02,3.15
	c0.36,3.21,0.42,6.72,1.89,9.41C721.84,231.28,725.89,230.41,728.35,230.41z"/>
<path d="M683.4,222.72c-1.9,2.16-3.02,4.59-4.65,5.01c-2.29,0.58-3.19-2.05-2.61-3.8c0.6-1.82,2.28-3.28,3.49-4.9
	C680.68,220.05,681.73,221.09,683.4,222.72z"/>
<path d="M936.51,524.51c0.37-6,0.74-12,1.11-18c0.44,0.03,0.88,0.05,1.32,0.08c0,1.53,0,3.06,0,5.3c1.16-1.92,1.94-3.21,3.24-5.35
	c0.96,2.3,1.65,3.68,2.12,5.12c1.61,4.91,2.48,5.21,6.27,2.06c0.26-0.21,0.68-0.23,1.46-0.47c0,3.99,0,7.78,0,11.57
	c-0.33,0.01-0.66,0.02-0.99,0.03c0-2.32,0-4.65,0-7.39c-6.1,1.95-7.24-2.39-9.71-6.39c-1.16,4.58-2.31,9.15-3.47,13.73
	C937.41,524.71,936.96,524.61,936.51,524.51z"/>
<path d="M922.92,518.87c2.28,0,4.19,0,6.1,0c0.05,0.43,0.1,0.87,0.16,1.3c-2.61,0.24-5.22,0.47-7.82,0.71
	c-0.15-3.27-0.31-6.55-0.46-9.82c0.48-0.02,0.96-0.04,1.44-0.07C922.52,513.43,922.7,515.88,922.92,518.87z"/>
<path d="M502.02,709.98c-1.39,0.19-2.77,0.38-4.42,0.6c-0.22,1.32-0.44,2.71-0.74,4.54c-2.66-1.7-2.54-4.43-1.58-5.82
	c1.77-2.57,4.47-0.93,6.78-0.63C502.05,709.11,502.04,709.55,502.02,709.98z"/>
<path d="M508.26,722.49c2.64-3.05,4.42-5.11,6.75-7.8c-0.19,2.31,0.32,4.77-0.69,5.98C513.32,721.87,510.81,721.81,508.26,722.49z"
	/>
<path d="M396.57,710.83c0,3.23,0,6.46,0,9.69c-0.38,0.01-0.76,0.02-1.15,0.03c-1.2-3.18-0.7-6.43-0.27-9.68
	C395.63,710.85,396.1,710.84,396.57,710.83z"/>
<path d="M390.83,709.02c0.18,3.77,0.37,7.54,0.55,11.31c-0.65,0.04-1.3,0.09-1.96,0.13c-0.21-3.76-0.43-7.52-0.64-11.28
	C389.47,709.13,390.15,709.08,390.83,709.02z"/>
<path d="M258.03,611.75c-2.48-1.13-4.95-2.26-8.01-3.66c1.48-2.62,2.93-5.17,4.37-7.72c0.65,0.09,1.3,0.17,1.95,0.26
	c-4.32,4.92-2.57,8.09,2.92,10.17C258.86,611.12,258.45,611.44,258.03,611.75z"/>
<path d="M1174.25,599.91c1.21,1.59,2.68,3.05,3.48,4.82c0.27,0.59-1.2,1.96-2.41,2.89c2.48-3.41-0.71-4.91-2.07-6.93
	C1173.58,600.43,1173.92,600.17,1174.25,599.91z"/>
<path d="M662.82,229.06c-0.19-3.36-0.34-6.15-0.51-9.19c2.87,0.38,5.72,0.51,5.79,3.83C668.16,226.53,666.47,228.49,662.82,229.06z"
	/>
<path d="M740.39,225.05c0.09,2.16-1.55,3.19-3.74,3.18c-2.95-0.01-4.08-2.07-4.06-4.7c0.02-1.85,0.19-3.84,2.88-3.88
	C738.17,219.62,740.35,221.78,740.39,225.05z M739.73,224.59c-1.46-1.37-2.26-2.55-3.34-2.92c-0.46-0.16-2.28,1.67-2.13,2.13
	c0.36,1.06,1.43,2.1,2.47,2.59C737.21,226.61,738.3,225.49,739.73,224.59z"/>
<path d="M761.66,230.1c0-3.62-0.07-6.53,0.1-9.43c0.02-0.31,1.57-0.95,2.07-0.72c1.08,0.51,2.53,1.33,2.77,2.3
	C767.48,225.72,765.77,228.04,761.66,230.1z"/>
</svg>
